<mxfile host="www.draw.io" modified="2019-11-08T05:40:41.464Z" agent="Mozilla/5.0 (Macintosh; Intel Mac OS X 10_14_5) AppleWebKit/537.36 (KHTML, like Gecko) Chrome/77.0.3865.120 Safari/537.36" etag="yFoP8cG9XjVO4a8AqhGi" version="12.1.9" type="github" pages="1">
  <diagram id="VT3u9ZFy1SN-JYqsTRi3" name="第 1 页">
    <mxGraphModel dx="2239" dy="812" grid="1" gridSize="10" guides="1" tooltips="1" connect="1" arrows="1" fold="1" page="1" pageScale="1" pageWidth="827" pageHeight="1169" math="0" shadow="0">
      <root>
        <mxCell id="0"/>
        <mxCell id="1" parent="0"/>
        <mxCell id="npgmk2zXJ_EXYh8wOIcg-1" value="Launcher" style="shape=umlFrame;whiteSpace=wrap;html=1;width=70;height=30;" parent="1" vertex="1">
          <mxGeometry x="-630" width="1010" height="1420" as="geometry"/>
        </mxCell>
        <mxCell id="npgmk2zXJ_EXYh8wOIcg-2" value="system_server" style="shape=umlFrame;whiteSpace=wrap;html=1;width=100;height=30;" parent="1" vertex="1">
          <mxGeometry x="400" width="1350" height="1420" as="geometry"/>
        </mxCell>
        <mxCell id="npgmk2zXJ_EXYh8wOIcg-3" value="zygote" style="shape=umlFrame;whiteSpace=wrap;html=1;width=100;height=30;" parent="1" vertex="1">
          <mxGeometry x="1770" width="700" height="1420" as="geometry"/>
        </mxCell>
        <mxCell id="npgmk2zXJ_EXYh8wOIcg-5" value="Activity" style="shape=umlLifeline;perimeter=lifelinePerimeter;whiteSpace=wrap;html=1;container=1;collapsible=0;recursiveResize=0;outlineConnect=0;" parent="1" vertex="1">
          <mxGeometry x="-610" y="40" width="100" height="1370" as="geometry"/>
        </mxCell>
        <mxCell id="npgmk2zXJ_EXYh8wOIcg-7" value="" style="html=1;points=[];perimeter=orthogonalPerimeter;" parent="npgmk2zXJ_EXYh8wOIcg-5" vertex="1">
          <mxGeometry x="45" y="90" width="10" height="80" as="geometry"/>
        </mxCell>
        <mxCell id="rClXXc_5LGEYXYGb1eKr-23" value="" style="html=1;points=[];perimeter=orthogonalPerimeter;labelBackgroundColor=none;align=right;" vertex="1" parent="npgmk2zXJ_EXYh8wOIcg-5">
          <mxGeometry x="45" y="500" width="10" height="50" as="geometry"/>
        </mxCell>
        <mxCell id="rClXXc_5LGEYXYGb1eKr-27" value="" style="html=1;points=[];perimeter=orthogonalPerimeter;labelBackgroundColor=none;align=right;" vertex="1" parent="npgmk2zXJ_EXYh8wOIcg-5">
          <mxGeometry x="50" y="530" width="10" height="10" as="geometry"/>
        </mxCell>
        <mxCell id="rClXXc_5LGEYXYGb1eKr-28" value="onPause()" style="edgeStyle=orthogonalEdgeStyle;html=1;align=left;spacingLeft=2;endArrow=block;rounded=0;entryX=1;entryY=0;labelBackgroundColor=none;" edge="1" target="rClXXc_5LGEYXYGb1eKr-27" parent="npgmk2zXJ_EXYh8wOIcg-5">
          <mxGeometry relative="1" as="geometry">
            <mxPoint x="55" y="525" as="sourcePoint"/>
            <Array as="points">
              <mxPoint x="80" y="525"/>
            </Array>
          </mxGeometry>
        </mxCell>
        <mxCell id="npgmk2zXJ_EXYh8wOIcg-6" value="Instrumentation" style="shape=umlLifeline;perimeter=lifelinePerimeter;whiteSpace=wrap;html=1;container=1;collapsible=0;recursiveResize=0;outlineConnect=0;" parent="1" vertex="1">
          <mxGeometry x="-490" y="40" width="100" height="1370" as="geometry"/>
        </mxCell>
        <mxCell id="npgmk2zXJ_EXYh8wOIcg-10" value="" style="html=1;points=[];perimeter=orthogonalPerimeter;" parent="npgmk2zXJ_EXYh8wOIcg-6" vertex="1">
          <mxGeometry x="45" y="110" width="10" height="50" as="geometry"/>
        </mxCell>
        <mxCell id="rClXXc_5LGEYXYGb1eKr-20" value="" style="html=1;points=[];perimeter=orthogonalPerimeter;labelBackgroundColor=none;align=right;" vertex="1" parent="npgmk2zXJ_EXYh8wOIcg-6">
          <mxGeometry x="45" y="490" width="10" height="30" as="geometry"/>
        </mxCell>
        <mxCell id="npgmk2zXJ_EXYh8wOIcg-8" value="startActivityForResult()" style="html=1;verticalAlign=bottom;startArrow=oval;endArrow=block;startSize=8;edgeStyle=elbowEdgeStyle;rounded=0;elbow=vertical;entryX=-0.1;entryY=0.063;entryDx=0;entryDy=0;entryPerimeter=0;labelBackgroundColor=none;" parent="1" target="npgmk2zXJ_EXYh8wOIcg-7" edge="1">
          <mxGeometry x="1" y="5" relative="1" as="geometry">
            <mxPoint x="-630" y="135" as="sourcePoint"/>
            <mxPoint as="offset"/>
            <mxPoint x="-568" y="160" as="targetPoint"/>
            <Array as="points">
              <mxPoint x="-600" y="135"/>
              <mxPoint x="-600" y="160"/>
            </Array>
          </mxGeometry>
        </mxCell>
        <mxCell id="npgmk2zXJ_EXYh8wOIcg-14" value="ActivityManagerService" style="shape=umlLifeline;perimeter=lifelinePerimeter;whiteSpace=wrap;html=1;container=1;collapsible=0;recursiveResize=0;outlineConnect=0;" parent="1" vertex="1">
          <mxGeometry x="420" y="40" width="140" height="1370" as="geometry"/>
        </mxCell>
        <mxCell id="npgmk2zXJ_EXYh8wOIcg-15" value="" style="html=1;points=[];perimeter=orthogonalPerimeter;" parent="npgmk2zXJ_EXYh8wOIcg-14" vertex="1">
          <mxGeometry x="65" y="140" width="10" height="50" as="geometry"/>
        </mxCell>
        <mxCell id="rClXXc_5LGEYXYGb1eKr-10" value="" style="html=1;points=[];perimeter=orthogonalPerimeter;labelBackgroundColor=none;align=right;" vertex="1" parent="npgmk2zXJ_EXYh8wOIcg-14">
          <mxGeometry x="65" y="570" width="10" height="35" as="geometry"/>
        </mxCell>
        <mxCell id="rClXXc_5LGEYXYGb1eKr-66" value="" style="html=1;points=[];perimeter=orthogonalPerimeter;labelBackgroundColor=none;fillColor=#ffffff;align=right;" vertex="1" parent="npgmk2zXJ_EXYh8wOIcg-14">
          <mxGeometry x="65" y="750" width="10" height="150" as="geometry"/>
        </mxCell>
        <mxCell id="rClXXc_5LGEYXYGb1eKr-73" value="" style="html=1;points=[];perimeter=orthogonalPerimeter;labelBackgroundColor=none;fillColor=#ffffff;align=right;" vertex="1" parent="npgmk2zXJ_EXYh8wOIcg-14">
          <mxGeometry x="70" y="780" width="10" height="110" as="geometry"/>
        </mxCell>
        <mxCell id="rClXXc_5LGEYXYGb1eKr-74" value="startProcessLocked()" style="edgeStyle=orthogonalEdgeStyle;html=1;align=left;spacingLeft=2;endArrow=block;rounded=0;entryX=1;entryY=0;labelBackgroundColor=none;" edge="1" target="rClXXc_5LGEYXYGb1eKr-73" parent="npgmk2zXJ_EXYh8wOIcg-14">
          <mxGeometry relative="1" as="geometry">
            <mxPoint x="75" y="770" as="sourcePoint"/>
            <Array as="points">
              <mxPoint x="100" y="770"/>
            </Array>
          </mxGeometry>
        </mxCell>
        <mxCell id="rClXXc_5LGEYXYGb1eKr-78" value="" style="html=1;points=[];perimeter=orthogonalPerimeter;labelBackgroundColor=none;fillColor=#ffffff;align=right;" vertex="1" parent="npgmk2zXJ_EXYh8wOIcg-14">
          <mxGeometry x="75" y="800" width="10" height="80" as="geometry"/>
        </mxCell>
        <mxCell id="rClXXc_5LGEYXYGb1eKr-79" value="startProcessLocked()" style="edgeStyle=orthogonalEdgeStyle;html=1;align=left;spacingLeft=2;endArrow=block;rounded=0;entryX=1;entryY=0;labelBackgroundColor=none;" edge="1" target="rClXXc_5LGEYXYGb1eKr-78" parent="npgmk2zXJ_EXYh8wOIcg-14">
          <mxGeometry relative="1" as="geometry">
            <mxPoint x="80" y="790" as="sourcePoint"/>
            <Array as="points">
              <mxPoint x="105" y="790"/>
            </Array>
          </mxGeometry>
        </mxCell>
        <mxCell id="rClXXc_5LGEYXYGb1eKr-80" value="" style="html=1;points=[];perimeter=orthogonalPerimeter;labelBackgroundColor=none;fillColor=#ffffff;align=right;" vertex="1" parent="npgmk2zXJ_EXYh8wOIcg-14">
          <mxGeometry x="80" y="820" width="10" height="50" as="geometry"/>
        </mxCell>
        <mxCell id="rClXXc_5LGEYXYGb1eKr-81" value="startProcessLocked()" style="edgeStyle=orthogonalEdgeStyle;html=1;align=left;spacingLeft=2;endArrow=block;rounded=0;entryX=1;entryY=0;labelBackgroundColor=none;" edge="1" target="rClXXc_5LGEYXYGb1eKr-80" parent="npgmk2zXJ_EXYh8wOIcg-14">
          <mxGeometry relative="1" as="geometry">
            <mxPoint x="85" y="810" as="sourcePoint"/>
            <Array as="points">
              <mxPoint x="110" y="810"/>
            </Array>
          </mxGeometry>
        </mxCell>
        <mxCell id="rClXXc_5LGEYXYGb1eKr-82" value="" style="html=1;points=[];perimeter=orthogonalPerimeter;labelBackgroundColor=none;fillColor=#ffffff;align=right;" vertex="1" parent="npgmk2zXJ_EXYh8wOIcg-14">
          <mxGeometry x="85" y="840" width="10" height="20" as="geometry"/>
        </mxCell>
        <mxCell id="rClXXc_5LGEYXYGb1eKr-83" value="startProcessLocked()" style="edgeStyle=orthogonalEdgeStyle;html=1;align=left;spacingLeft=2;endArrow=block;rounded=0;entryX=1;entryY=0;labelBackgroundColor=none;" edge="1" target="rClXXc_5LGEYXYGb1eKr-82" parent="npgmk2zXJ_EXYh8wOIcg-14">
          <mxGeometry relative="1" as="geometry">
            <mxPoint x="90" y="830" as="sourcePoint"/>
            <Array as="points">
              <mxPoint x="115" y="830"/>
            </Array>
          </mxGeometry>
        </mxCell>
        <mxCell id="rClXXc_5LGEYXYGb1eKr-88" value="" style="html=1;points=[];perimeter=orthogonalPerimeter;labelBackgroundColor=none;fillColor=#ffffff;align=right;" vertex="1" parent="npgmk2zXJ_EXYh8wOIcg-14">
          <mxGeometry x="65" y="910" width="10" height="40" as="geometry"/>
        </mxCell>
        <mxCell id="rClXXc_5LGEYXYGb1eKr-193" value="" style="html=1;points=[];perimeter=orthogonalPerimeter;labelBackgroundColor=none;fillColor=#ffffff;fontColor=#000000;align=center;" vertex="1" parent="npgmk2zXJ_EXYh8wOIcg-14">
          <mxGeometry x="65" y="1220" width="10" height="90" as="geometry"/>
        </mxCell>
        <mxCell id="rClXXc_5LGEYXYGb1eKr-201" value="" style="html=1;points=[];perimeter=orthogonalPerimeter;labelBackgroundColor=none;fillColor=#ffffff;fontColor=#D79B00;align=center;" vertex="1" parent="npgmk2zXJ_EXYh8wOIcg-14">
          <mxGeometry x="70" y="1250" width="10" height="40" as="geometry"/>
        </mxCell>
        <mxCell id="rClXXc_5LGEYXYGb1eKr-202" value="attachApplicationLocked()" style="edgeStyle=orthogonalEdgeStyle;html=1;align=left;spacingLeft=2;endArrow=block;rounded=0;entryX=1;entryY=0;labelBackgroundColor=none;strokeColor=#000000;fontColor=#000000;" edge="1" target="rClXXc_5LGEYXYGb1eKr-201" parent="npgmk2zXJ_EXYh8wOIcg-14">
          <mxGeometry relative="1" as="geometry">
            <mxPoint x="75" y="1240" as="sourcePoint"/>
            <Array as="points">
              <mxPoint x="100" y="1240"/>
            </Array>
          </mxGeometry>
        </mxCell>
        <mxCell id="npgmk2zXJ_EXYh8wOIcg-16" style="edgeStyle=orthogonalEdgeStyle;rounded=0;orthogonalLoop=1;jettySize=auto;html=1;entryX=0.1;entryY=0.4;entryDx=0;entryDy=0;entryPerimeter=0;" parent="1" source="npgmk2zXJ_EXYh8wOIcg-7" target="npgmk2zXJ_EXYh8wOIcg-10" edge="1">
          <mxGeometry relative="1" as="geometry"/>
        </mxCell>
        <mxCell id="npgmk2zXJ_EXYh8wOIcg-17" value="execStartActivity()" style="text;html=1;resizable=0;points=[];align=center;verticalAlign=middle;labelBackgroundColor=#ffffff;" parent="npgmk2zXJ_EXYh8wOIcg-16" vertex="1" connectable="0">
          <mxGeometry x="-0.0413" y="1" relative="1" as="geometry">
            <mxPoint x="2" y="-9" as="offset"/>
          </mxGeometry>
        </mxCell>
        <mxCell id="npgmk2zXJ_EXYh8wOIcg-18" value="IActivityManager.Stub.&lt;br&gt;Proxy" style="shape=umlLifeline;perimeter=lifelinePerimeter;whiteSpace=wrap;container=1;collapsible=0;recursiveResize=0;outlineConnect=0;horizontal=1;labelPosition=center;verticalLabelPosition=middle;align=center;verticalAlign=middle;labelBackgroundColor=none;html=1;" parent="1" vertex="1">
          <mxGeometry x="-370" y="40" width="130" height="1370" as="geometry"/>
        </mxCell>
        <mxCell id="npgmk2zXJ_EXYh8wOIcg-19" value="" style="html=1;points=[];perimeter=orthogonalPerimeter;" parent="npgmk2zXJ_EXYh8wOIcg-18" vertex="1">
          <mxGeometry x="60" y="130" width="10" height="40" as="geometry"/>
        </mxCell>
        <mxCell id="rClXXc_5LGEYXYGb1eKr-7" value="" style="html=1;points=[];perimeter=orthogonalPerimeter;labelBackgroundColor=none;align=right;" vertex="1" parent="npgmk2zXJ_EXYh8wOIcg-18">
          <mxGeometry x="60" y="530" width="10" height="50" as="geometry"/>
        </mxCell>
        <mxCell id="npgmk2zXJ_EXYh8wOIcg-20" style="edgeStyle=elbowEdgeStyle;rounded=0;orthogonalLoop=1;jettySize=auto;html=1;entryX=0;entryY=0.35;entryDx=0;entryDy=0;entryPerimeter=0;elbow=vertical;" parent="1" source="npgmk2zXJ_EXYh8wOIcg-10" target="npgmk2zXJ_EXYh8wOIcg-19" edge="1">
          <mxGeometry relative="1" as="geometry">
            <mxPoint x="-300" y="190" as="targetPoint"/>
          </mxGeometry>
        </mxCell>
        <mxCell id="npgmk2zXJ_EXYh8wOIcg-21" value="startActivity()" style="text;html=1;resizable=0;points=[];align=center;verticalAlign=middle;labelBackgroundColor=#ffffff;" parent="npgmk2zXJ_EXYh8wOIcg-20" vertex="1" connectable="0">
          <mxGeometry x="0.0714" y="12" relative="1" as="geometry">
            <mxPoint x="-10" y="-1" as="offset"/>
          </mxGeometry>
        </mxCell>
        <mxCell id="npgmk2zXJ_EXYh8wOIcg-22" style="edgeStyle=orthogonalEdgeStyle;rounded=0;orthogonalLoop=1;jettySize=auto;html=1;entryX=0;entryY=0.32;entryDx=0;entryDy=0;entryPerimeter=0;fillColor=#ffe6cc;strokeColor=#d79b00;dashed=1;" parent="1" source="npgmk2zXJ_EXYh8wOIcg-19" target="npgmk2zXJ_EXYh8wOIcg-15" edge="1">
          <mxGeometry relative="1" as="geometry">
            <Array as="points">
              <mxPoint x="390" y="196"/>
              <mxPoint x="390" y="196"/>
            </Array>
          </mxGeometry>
        </mxCell>
        <mxCell id="npgmk2zXJ_EXYh8wOIcg-23" value="Binder跨进程：startActivity()" style="text;html=1;resizable=0;points=[];align=center;verticalAlign=middle;labelBackgroundColor=none;fontColor=#D79B00;" parent="npgmk2zXJ_EXYh8wOIcg-22" vertex="1" connectable="0">
          <mxGeometry x="-0.11" y="2" relative="1" as="geometry">
            <mxPoint x="351" y="-14" as="offset"/>
          </mxGeometry>
        </mxCell>
        <mxCell id="npgmk2zXJ_EXYh8wOIcg-24" value="ActivityStarter" style="shape=umlLifeline;perimeter=lifelinePerimeter;whiteSpace=wrap;html=1;container=1;collapsible=0;recursiveResize=0;outlineConnect=0;" parent="1" vertex="1">
          <mxGeometry x="720" y="40" width="110" height="1370" as="geometry"/>
        </mxCell>
        <mxCell id="npgmk2zXJ_EXYh8wOIcg-25" value="" style="html=1;points=[];perimeter=orthogonalPerimeter;" parent="npgmk2zXJ_EXYh8wOIcg-24" vertex="1">
          <mxGeometry x="50" y="160" width="10" height="50" as="geometry"/>
        </mxCell>
        <mxCell id="npgmk2zXJ_EXYh8wOIcg-26" style="edgeStyle=orthogonalEdgeStyle;rounded=0;orthogonalLoop=1;jettySize=auto;html=1;entryX=0;entryY=0.16;entryDx=0;entryDy=0;entryPerimeter=0;" parent="1" source="npgmk2zXJ_EXYh8wOIcg-15" target="npgmk2zXJ_EXYh8wOIcg-25" edge="1">
          <mxGeometry relative="1" as="geometry">
            <Array as="points">
              <mxPoint x="630" y="208"/>
              <mxPoint x="630" y="208"/>
            </Array>
          </mxGeometry>
        </mxCell>
        <mxCell id="npgmk2zXJ_EXYh8wOIcg-27" value="省略多次中间的函数调用：&lt;br&gt;startActivityUnchecked()" style="text;html=1;resizable=0;points=[];align=left;verticalAlign=middle;labelBackgroundColor=none;" parent="npgmk2zXJ_EXYh8wOIcg-26" vertex="1" connectable="0">
          <mxGeometry x="-0.2296" y="2" relative="1" as="geometry">
            <mxPoint x="44" y="-26" as="offset"/>
          </mxGeometry>
        </mxCell>
        <mxCell id="npgmk2zXJ_EXYh8wOIcg-28" value="ActivityStackSupervisor" style="shape=umlLifeline;perimeter=lifelinePerimeter;whiteSpace=wrap;html=1;container=1;collapsible=0;recursiveResize=0;outlineConnect=0;" parent="1" vertex="1">
          <mxGeometry x="850" y="40" width="130" height="1370" as="geometry"/>
        </mxCell>
        <mxCell id="npgmk2zXJ_EXYh8wOIcg-29" value="" style="html=1;points=[];perimeter=orthogonalPerimeter;" parent="npgmk2zXJ_EXYh8wOIcg-28" vertex="1">
          <mxGeometry x="60" y="170" width="10" height="50" as="geometry"/>
        </mxCell>
        <mxCell id="npgmk2zXJ_EXYh8wOIcg-42" value="" style="html=1;points=[];perimeter=orthogonalPerimeter;align=left;" parent="npgmk2zXJ_EXYh8wOIcg-28" vertex="1">
          <mxGeometry x="60" y="250" width="10" height="50" as="geometry"/>
        </mxCell>
        <mxCell id="rClXXc_5LGEYXYGb1eKr-51" value="" style="html=1;points=[];perimeter=orthogonalPerimeter;labelBackgroundColor=none;fillColor=#ffffff;align=right;" vertex="1" parent="npgmk2zXJ_EXYh8wOIcg-28">
          <mxGeometry x="60" y="650" width="10" height="10" as="geometry"/>
        </mxCell>
        <mxCell id="rClXXc_5LGEYXYGb1eKr-53" value="" style="html=1;points=[];perimeter=orthogonalPerimeter;labelBackgroundColor=none;fillColor=#ffffff;align=right;" vertex="1" parent="npgmk2zXJ_EXYh8wOIcg-28">
          <mxGeometry x="60" y="670" width="10" height="40" as="geometry"/>
        </mxCell>
        <mxCell id="rClXXc_5LGEYXYGb1eKr-63" value="" style="html=1;points=[];perimeter=orthogonalPerimeter;labelBackgroundColor=none;fillColor=#ffffff;align=right;" vertex="1" parent="npgmk2zXJ_EXYh8wOIcg-28">
          <mxGeometry x="60" y="740" width="10" height="30" as="geometry"/>
        </mxCell>
        <mxCell id="rClXXc_5LGEYXYGb1eKr-204" value="" style="html=1;points=[];perimeter=orthogonalPerimeter;labelBackgroundColor=none;fillColor=#ffffff;fontColor=#D79B00;align=center;" vertex="1" parent="npgmk2zXJ_EXYh8wOIcg-28">
          <mxGeometry x="60" y="1280" width="10" height="50" as="geometry"/>
        </mxCell>
        <mxCell id="rClXXc_5LGEYXYGb1eKr-207" value="" style="html=1;points=[];perimeter=orthogonalPerimeter;labelBackgroundColor=none;fillColor=#ffffff;fontColor=#000000;align=center;" vertex="1" parent="npgmk2zXJ_EXYh8wOIcg-28">
          <mxGeometry x="65" y="1300" width="10" height="20" as="geometry"/>
        </mxCell>
        <mxCell id="rClXXc_5LGEYXYGb1eKr-208" value="realStartActivityLocked()" style="edgeStyle=orthogonalEdgeStyle;html=1;align=left;spacingLeft=2;endArrow=block;rounded=0;entryX=1;entryY=0;labelBackgroundColor=none;strokeColor=#000000;fontColor=#000000;" edge="1" target="rClXXc_5LGEYXYGb1eKr-207" parent="npgmk2zXJ_EXYh8wOIcg-28">
          <mxGeometry relative="1" as="geometry">
            <mxPoint x="70" y="1290" as="sourcePoint"/>
            <Array as="points">
              <mxPoint x="95" y="1290"/>
            </Array>
          </mxGeometry>
        </mxCell>
        <mxCell id="npgmk2zXJ_EXYh8wOIcg-30" value="ActivityStack&lt;br&gt;(即将启动的App)" style="shape=umlLifeline;perimeter=lifelinePerimeter;whiteSpace=wrap;html=1;container=1;collapsible=0;recursiveResize=0;outlineConnect=0;" parent="1" vertex="1">
          <mxGeometry x="1000" y="40" width="130" height="1370" as="geometry"/>
        </mxCell>
        <mxCell id="npgmk2zXJ_EXYh8wOIcg-31" value="" style="html=1;points=[];perimeter=orthogonalPerimeter;" parent="npgmk2zXJ_EXYh8wOIcg-30" vertex="1">
          <mxGeometry x="60" y="190" width="10" height="90" as="geometry"/>
        </mxCell>
        <mxCell id="npgmk2zXJ_EXYh8wOIcg-36" value="" style="html=1;points=[];perimeter=orthogonalPerimeter;align=left;" parent="npgmk2zXJ_EXYh8wOIcg-30" vertex="1">
          <mxGeometry x="65" y="220" width="10" height="50" as="geometry"/>
        </mxCell>
        <mxCell id="npgmk2zXJ_EXYh8wOIcg-40" value="resumeTopActivityInnerLocked()" style="html=1;verticalAlign=bottom;endArrow=block;align=left;edgeStyle=orthogonalEdgeStyle;rounded=0;exitX=1;exitY=0.178;exitDx=0;exitDy=0;exitPerimeter=0;labelBackgroundColor=none;" parent="npgmk2zXJ_EXYh8wOIcg-30" source="npgmk2zXJ_EXYh8wOIcg-31" edge="1">
          <mxGeometry x="-0.6543" y="-65" width="80" relative="1" as="geometry">
            <mxPoint x="70" y="200" as="sourcePoint"/>
            <mxPoint x="75" y="239" as="targetPoint"/>
            <Array as="points">
              <mxPoint x="90" y="206"/>
              <mxPoint x="90" y="239"/>
              <mxPoint x="76" y="239"/>
            </Array>
            <mxPoint x="-60" y="-41" as="offset"/>
          </mxGeometry>
        </mxCell>
        <mxCell id="rClXXc_5LGEYXYGb1eKr-58" value="" style="html=1;points=[];perimeter=orthogonalPerimeter;labelBackgroundColor=none;fillColor=#ffffff;align=right;" vertex="1" parent="npgmk2zXJ_EXYh8wOIcg-30">
          <mxGeometry x="60" y="690" width="10" height="80" as="geometry"/>
        </mxCell>
        <mxCell id="rClXXc_5LGEYXYGb1eKr-61" value="" style="html=1;points=[];perimeter=orthogonalPerimeter;labelBackgroundColor=none;fillColor=#ffffff;align=right;" vertex="1" parent="npgmk2zXJ_EXYh8wOIcg-30">
          <mxGeometry x="65" y="730" width="10" height="20" as="geometry"/>
        </mxCell>
        <mxCell id="rClXXc_5LGEYXYGb1eKr-62" value="resumeTopActivityInnerLocked()" style="edgeStyle=orthogonalEdgeStyle;html=1;align=left;spacingLeft=2;endArrow=block;rounded=0;entryX=1;entryY=0;labelBackgroundColor=none;" edge="1" target="rClXXc_5LGEYXYGb1eKr-61" parent="npgmk2zXJ_EXYh8wOIcg-30">
          <mxGeometry relative="1" as="geometry">
            <mxPoint x="70" y="710" as="sourcePoint"/>
            <Array as="points">
              <mxPoint x="95" y="710"/>
            </Array>
          </mxGeometry>
        </mxCell>
        <mxCell id="npgmk2zXJ_EXYh8wOIcg-32" value="&lt;span style=&quot;font-size: 11px&quot;&gt;resumeFocusedStackTopActivityLocked()&lt;/span&gt;" style="edgeStyle=elbowEdgeStyle;rounded=0;orthogonalLoop=1;jettySize=auto;html=1;align=left;" parent="1" source="npgmk2zXJ_EXYh8wOIcg-25" edge="1">
          <mxGeometry x="-0.8507" y="20" relative="1" as="geometry">
            <mxPoint x="909" y="220" as="targetPoint"/>
            <Array as="points">
              <mxPoint x="860" y="220"/>
              <mxPoint x="880" y="220"/>
              <mxPoint x="850" y="220"/>
              <mxPoint x="850" y="220"/>
            </Array>
            <mxPoint as="offset"/>
          </mxGeometry>
        </mxCell>
        <mxCell id="npgmk2zXJ_EXYh8wOIcg-33" style="rounded=0;orthogonalLoop=1;jettySize=auto;html=1;entryX=0;entryY=0.029;entryDx=0;entryDy=0;entryPerimeter=0;align=left;edgeStyle=elbowEdgeStyle;" parent="1" target="npgmk2zXJ_EXYh8wOIcg-31" edge="1">
          <mxGeometry relative="1" as="geometry">
            <mxPoint x="920" y="233" as="sourcePoint"/>
          </mxGeometry>
        </mxCell>
        <mxCell id="npgmk2zXJ_EXYh8wOIcg-34" value="resumeTopActivityUncheckedLocked()" style="text;html=1;resizable=0;points=[];align=center;verticalAlign=middle;labelBackgroundColor=#ffffff;" parent="npgmk2zXJ_EXYh8wOIcg-33" vertex="1" connectable="0">
          <mxGeometry y="18" relative="1" as="geometry">
            <mxPoint x="50" y="5" as="offset"/>
          </mxGeometry>
        </mxCell>
        <mxCell id="npgmk2zXJ_EXYh8wOIcg-41" style="edgeStyle=elbowEdgeStyle;rounded=0;orthogonalLoop=1;jettySize=auto;html=1;align=left;elbow=vertical;entryX=1;entryY=0.2;entryDx=0;entryDy=0;entryPerimeter=0;" parent="1" source="npgmk2zXJ_EXYh8wOIcg-36" target="npgmk2zXJ_EXYh8wOIcg-42" edge="1">
          <mxGeometry relative="1" as="geometry">
            <mxPoint x="920" y="300" as="targetPoint"/>
            <Array as="points">
              <mxPoint x="1030" y="300"/>
            </Array>
          </mxGeometry>
        </mxCell>
        <mxCell id="npgmk2zXJ_EXYh8wOIcg-44" value="pauseBackStacks()" style="text;html=1;resizable=0;points=[];align=center;verticalAlign=middle;labelBackgroundColor=#ffffff;" parent="npgmk2zXJ_EXYh8wOIcg-41" vertex="1" connectable="0">
          <mxGeometry x="0.0483" y="-1" relative="1" as="geometry">
            <mxPoint x="1" y="-9" as="offset"/>
          </mxGeometry>
        </mxCell>
        <mxCell id="npgmk2zXJ_EXYh8wOIcg-45" value="ActivityStack&lt;br&gt;(Launcher)" style="shape=umlLifeline;perimeter=lifelinePerimeter;whiteSpace=wrap;html=1;container=1;collapsible=0;recursiveResize=0;outlineConnect=0;" parent="1" vertex="1">
          <mxGeometry x="1150" y="40" width="130" height="1370" as="geometry"/>
        </mxCell>
        <mxCell id="npgmk2zXJ_EXYh8wOIcg-46" value="" style="html=1;points=[];perimeter=orthogonalPerimeter;" parent="npgmk2zXJ_EXYh8wOIcg-45" vertex="1">
          <mxGeometry x="60" y="280" width="10" height="130" as="geometry"/>
        </mxCell>
        <mxCell id="npgmk2zXJ_EXYh8wOIcg-56" value="" style="html=1;points=[];perimeter=orthogonalPerimeter;align=left;" parent="npgmk2zXJ_EXYh8wOIcg-45" vertex="1">
          <mxGeometry x="65" y="370" width="10" height="20" as="geometry"/>
        </mxCell>
        <mxCell id="npgmk2zXJ_EXYh8wOIcg-57" value="&lt;span style=&quot;font-size: 11px&quot;&gt;schedulePauseTimeout()&lt;br&gt;&lt;/span&gt;" style="edgeStyle=orthogonalEdgeStyle;html=1;align=left;spacingLeft=2;endArrow=block;rounded=0;entryX=1;entryY=0;exitX=1;exitY=0.354;exitDx=0;exitDy=0;exitPerimeter=0;labelBackgroundColor=none;" parent="npgmk2zXJ_EXYh8wOIcg-45" source="npgmk2zXJ_EXYh8wOIcg-46" target="npgmk2zXJ_EXYh8wOIcg-56" edge="1">
          <mxGeometry x="0.1011" y="5" relative="1" as="geometry">
            <mxPoint x="70" y="310" as="sourcePoint"/>
            <Array as="points">
              <mxPoint x="95" y="326"/>
              <mxPoint x="95" y="370"/>
            </Array>
            <mxPoint as="offset"/>
          </mxGeometry>
        </mxCell>
        <mxCell id="rClXXc_5LGEYXYGb1eKr-30" value="" style="html=1;points=[];perimeter=orthogonalPerimeter;labelBackgroundColor=none;align=right;" vertex="1" parent="npgmk2zXJ_EXYh8wOIcg-45">
          <mxGeometry x="60" y="580" width="10" height="110" as="geometry"/>
        </mxCell>
        <mxCell id="rClXXc_5LGEYXYGb1eKr-48" value="" style="html=1;points=[];perimeter=orthogonalPerimeter;labelBackgroundColor=none;fillColor=#ffffff;align=right;" vertex="1" parent="npgmk2zXJ_EXYh8wOIcg-45">
          <mxGeometry x="65" y="640" width="10" height="40" as="geometry"/>
        </mxCell>
        <mxCell id="rClXXc_5LGEYXYGb1eKr-49" value="completePauseLocked()" style="edgeStyle=orthogonalEdgeStyle;html=1;align=left;spacingLeft=2;endArrow=block;rounded=0;entryX=1;entryY=0;labelBackgroundColor=none;" edge="1" target="rClXXc_5LGEYXYGb1eKr-48" parent="npgmk2zXJ_EXYh8wOIcg-45">
          <mxGeometry relative="1" as="geometry">
            <mxPoint x="70" y="620" as="sourcePoint"/>
            <Array as="points">
              <mxPoint x="95" y="620"/>
            </Array>
          </mxGeometry>
        </mxCell>
        <mxCell id="npgmk2zXJ_EXYh8wOIcg-50" style="edgeStyle=elbowEdgeStyle;rounded=0;orthogonalLoop=1;jettySize=auto;elbow=vertical;html=1;entryX=0;entryY=0.038;entryDx=0;entryDy=0;entryPerimeter=0;align=left;" parent="1" source="npgmk2zXJ_EXYh8wOIcg-42" target="npgmk2zXJ_EXYh8wOIcg-46" edge="1">
          <mxGeometry relative="1" as="geometry"/>
        </mxCell>
        <mxCell id="npgmk2zXJ_EXYh8wOIcg-51" value="startPausingLocked()" style="text;html=1;resizable=0;points=[];align=center;verticalAlign=middle;labelBackgroundColor=#ffffff;" parent="npgmk2zXJ_EXYh8wOIcg-50" vertex="1" connectable="0">
          <mxGeometry y="96" relative="1" as="geometry">
            <mxPoint x="75" y="86" as="offset"/>
          </mxGeometry>
        </mxCell>
        <mxCell id="npgmk2zXJ_EXYh8wOIcg-52" value="ActivityThread.&lt;br&gt;ApplicationThread" style="shape=umlLifeline;perimeter=lifelinePerimeter;whiteSpace=wrap;html=1;container=1;collapsible=0;recursiveResize=0;outlineConnect=0;" parent="1" vertex="1">
          <mxGeometry x="-70" y="40" width="130" height="1370" as="geometry"/>
        </mxCell>
        <mxCell id="npgmk2zXJ_EXYh8wOIcg-53" value="" style="html=1;points=[];perimeter=orthogonalPerimeter;" parent="npgmk2zXJ_EXYh8wOIcg-52" vertex="1">
          <mxGeometry x="60" y="300" width="10" height="20" as="geometry"/>
        </mxCell>
        <mxCell id="npgmk2zXJ_EXYh8wOIcg-54" style="edgeStyle=elbowEdgeStyle;rounded=0;orthogonalLoop=1;jettySize=auto;elbow=vertical;html=1;align=left;entryX=1;entryY=0.25;entryDx=0;entryDy=0;entryPerimeter=0;fillColor=#ffe6cc;strokeColor=#d79b00;dashed=1;" parent="1" source="npgmk2zXJ_EXYh8wOIcg-46" target="npgmk2zXJ_EXYh8wOIcg-53" edge="1">
          <mxGeometry relative="1" as="geometry"/>
        </mxCell>
        <mxCell id="npgmk2zXJ_EXYh8wOIcg-55" value="Binder跨进程：scheduleTransaction()" style="text;html=1;resizable=0;points=[];align=center;verticalAlign=middle;labelBackgroundColor=#ffffff;fontColor=#D79B00;" parent="npgmk2zXJ_EXYh8wOIcg-54" vertex="1" connectable="0">
          <mxGeometry x="0.8846" y="-2" relative="1" as="geometry">
            <mxPoint x="75" y="-11" as="offset"/>
          </mxGeometry>
        </mxCell>
        <mxCell id="npgmk2zXJ_EXYh8wOIcg-58" value="ActivityThread" style="shape=umlLifeline;perimeter=lifelinePerimeter;whiteSpace=wrap;html=1;container=1;collapsible=0;recursiveResize=0;outlineConnect=0;" parent="1" vertex="1">
          <mxGeometry x="-220" y="40" width="130" height="1370" as="geometry"/>
        </mxCell>
        <mxCell id="npgmk2zXJ_EXYh8wOIcg-59" value="" style="html=1;points=[];perimeter=orthogonalPerimeter;" parent="npgmk2zXJ_EXYh8wOIcg-58" vertex="1">
          <mxGeometry x="60" y="310" width="10" height="90" as="geometry"/>
        </mxCell>
        <mxCell id="npgmk2zXJ_EXYh8wOIcg-70" value="" style="html=1;points=[];perimeter=orthogonalPerimeter;labelBackgroundColor=none;align=center;" parent="npgmk2zXJ_EXYh8wOIcg-58" vertex="1">
          <mxGeometry x="65" y="350" width="10" height="10" as="geometry"/>
        </mxCell>
        <mxCell id="npgmk2zXJ_EXYh8wOIcg-71" value="sendMessage()" style="edgeStyle=orthogonalEdgeStyle;html=1;align=left;spacingLeft=2;endArrow=block;rounded=0;entryX=1;entryY=0;" parent="npgmk2zXJ_EXYh8wOIcg-58" target="npgmk2zXJ_EXYh8wOIcg-70" edge="1">
          <mxGeometry relative="1" as="geometry">
            <mxPoint x="70" y="330" as="sourcePoint"/>
            <Array as="points">
              <mxPoint x="95" y="330"/>
            </Array>
          </mxGeometry>
        </mxCell>
        <mxCell id="npgmk2zXJ_EXYh8wOIcg-75" value="" style="html=1;points=[];perimeter=orthogonalPerimeter;labelBackgroundColor=none;align=center;" parent="npgmk2zXJ_EXYh8wOIcg-58" vertex="1">
          <mxGeometry x="60" y="420" width="10" height="100" as="geometry"/>
        </mxCell>
        <mxCell id="rClXXc_5LGEYXYGb1eKr-13" value="" style="html=1;points=[];perimeter=orthogonalPerimeter;labelBackgroundColor=none;align=right;" vertex="1" parent="npgmk2zXJ_EXYh8wOIcg-58">
          <mxGeometry x="65" y="460" width="10" height="50" as="geometry"/>
        </mxCell>
        <mxCell id="rClXXc_5LGEYXYGb1eKr-14" value="&lt;span style=&quot;font-size: 11px&quot;&gt;performPauseActivity()&lt;/span&gt;" style="edgeStyle=orthogonalEdgeStyle;html=1;align=left;spacingLeft=2;endArrow=block;rounded=0;entryX=1;entryY=0;labelBackgroundColor=none;" edge="1" target="rClXXc_5LGEYXYGb1eKr-13" parent="npgmk2zXJ_EXYh8wOIcg-58">
          <mxGeometry relative="1" as="geometry">
            <mxPoint x="70" y="440" as="sourcePoint"/>
            <Array as="points">
              <mxPoint x="95" y="440"/>
            </Array>
          </mxGeometry>
        </mxCell>
        <mxCell id="rClXXc_5LGEYXYGb1eKr-15" value="" style="html=1;points=[];perimeter=orthogonalPerimeter;labelBackgroundColor=none;align=right;" vertex="1" parent="npgmk2zXJ_EXYh8wOIcg-58">
          <mxGeometry x="70" y="490" width="10" height="10" as="geometry"/>
        </mxCell>
        <mxCell id="rClXXc_5LGEYXYGb1eKr-16" value="performPauseActivityIfNeeded()" style="edgeStyle=orthogonalEdgeStyle;html=1;align=left;spacingLeft=2;endArrow=block;rounded=0;entryX=1;entryY=0;labelBackgroundColor=none;" edge="1" target="rClXXc_5LGEYXYGb1eKr-15" parent="npgmk2zXJ_EXYh8wOIcg-58">
          <mxGeometry relative="1" as="geometry">
            <mxPoint x="75" y="470" as="sourcePoint"/>
            <Array as="points">
              <mxPoint x="100" y="470"/>
            </Array>
          </mxGeometry>
        </mxCell>
        <mxCell id="npgmk2zXJ_EXYh8wOIcg-60" style="edgeStyle=elbowEdgeStyle;rounded=0;orthogonalLoop=1;jettySize=auto;elbow=vertical;html=1;entryX=1;entryY=0;entryDx=0;entryDy=0;entryPerimeter=0;align=left;" parent="1" source="npgmk2zXJ_EXYh8wOIcg-53" target="npgmk2zXJ_EXYh8wOIcg-59" edge="1">
          <mxGeometry relative="1" as="geometry"/>
        </mxCell>
        <mxCell id="npgmk2zXJ_EXYh8wOIcg-61" value="scheduleTransaction()" style="text;html=1;resizable=0;points=[];align=center;verticalAlign=middle;labelBackgroundColor=#ffffff;" parent="npgmk2zXJ_EXYh8wOIcg-60" vertex="1" connectable="0">
          <mxGeometry x="0.2286" y="-2" relative="1" as="geometry">
            <mxPoint x="16" y="-15" as="offset"/>
          </mxGeometry>
        </mxCell>
        <mxCell id="npgmk2zXJ_EXYh8wOIcg-68" value="ActivityThread.H" style="shape=umlLifeline;perimeter=lifelinePerimeter;whiteSpace=wrap;html=1;container=1;collapsible=0;recursiveResize=0;outlineConnect=0;" parent="1" vertex="1">
          <mxGeometry x="80" y="40" width="130" height="1370" as="geometry"/>
        </mxCell>
        <mxCell id="npgmk2zXJ_EXYh8wOIcg-69" value="" style="html=1;points=[];perimeter=orthogonalPerimeter;" parent="npgmk2zXJ_EXYh8wOIcg-68" vertex="1">
          <mxGeometry x="60" y="370" width="10" height="200" as="geometry"/>
        </mxCell>
        <mxCell id="npgmk2zXJ_EXYh8wOIcg-76" style="edgeStyle=elbowEdgeStyle;rounded=0;orthogonalLoop=1;jettySize=auto;elbow=vertical;html=1;align=left;exitX=0;exitY=0.52;exitDx=0;exitDy=0;exitPerimeter=0;" parent="1" source="rClXXc_5LGEYXYGb1eKr-2" edge="1">
          <mxGeometry relative="1" as="geometry">
            <mxPoint x="-150" y="466" as="targetPoint"/>
            <Array as="points">
              <mxPoint x="70" y="466"/>
            </Array>
          </mxGeometry>
        </mxCell>
        <mxCell id="npgmk2zXJ_EXYh8wOIcg-77" value="handlePauseActivity()" style="text;html=1;resizable=0;points=[];align=left;verticalAlign=middle;labelBackgroundColor=none;" parent="npgmk2zXJ_EXYh8wOIcg-76" vertex="1" connectable="0">
          <mxGeometry x="0.1517" y="-1" relative="1" as="geometry">
            <mxPoint x="-162" y="-9" as="offset"/>
          </mxGeometry>
        </mxCell>
        <mxCell id="npgmk2zXJ_EXYh8wOIcg-78" value="ActivityStack.&lt;br&gt;ActivityStackHandler&lt;br&gt;(Launcher)" style="shape=umlLifeline;perimeter=lifelinePerimeter;whiteSpace=wrap;html=1;container=1;collapsible=0;recursiveResize=0;outlineConnect=0;" parent="1" vertex="1">
          <mxGeometry x="1300" y="40" width="130" height="1370" as="geometry"/>
        </mxCell>
        <mxCell id="npgmk2zXJ_EXYh8wOIcg-80" value="" style="html=1;points=[];perimeter=orthogonalPerimeter;align=left;" parent="npgmk2zXJ_EXYh8wOIcg-78" vertex="1">
          <mxGeometry x="60" y="454" width="10" height="46" as="geometry"/>
        </mxCell>
        <mxCell id="npgmk2zXJ_EXYh8wOIcg-87" value="&lt;span style=&quot;font-size: 12px&quot;&gt;1⃣️通过Handler机制：&lt;br&gt;handleMessage()&lt;/span&gt;" style="html=1;verticalAlign=bottom;startArrow=oval;startFill=1;endArrow=block;startSize=8;dashed=1;labelBackgroundColor=none;align=center;entryX=0;entryY=0;entryDx=0;entryDy=0;entryPerimeter=0;edgeStyle=elbowEdgeStyle;elbow=vertical;" parent="npgmk2zXJ_EXYh8wOIcg-78" target="npgmk2zXJ_EXYh8wOIcg-80" edge="1">
          <mxGeometry y="11" width="60" relative="1" as="geometry">
            <mxPoint y="454" as="sourcePoint"/>
            <mxPoint x="60" y="464" as="targetPoint"/>
            <Array as="points"/>
            <mxPoint x="-10" y="7" as="offset"/>
          </mxGeometry>
        </mxCell>
        <mxCell id="rClXXc_5LGEYXYGb1eKr-36" value="" style="html=1;points=[];perimeter=orthogonalPerimeter;labelBackgroundColor=none;align=right;" vertex="1" parent="npgmk2zXJ_EXYh8wOIcg-78">
          <mxGeometry x="60" y="610" width="10" height="10" as="geometry"/>
        </mxCell>
        <mxCell id="npgmk2zXJ_EXYh8wOIcg-84" value="&lt;span style=&quot;font-size: 12px&quot;&gt;通过Handler机制：&lt;br&gt;handleMessage()&lt;/span&gt;" style="html=1;verticalAlign=bottom;startArrow=oval;startFill=1;endArrow=block;startSize=8;dashed=1;align=center;labelBackgroundColor=none;edgeStyle=elbowEdgeStyle;elbow=vertical;" parent="1" edge="1">
          <mxGeometry x="-0.2" y="10" width="60" relative="1" as="geometry">
            <mxPoint x="50" y="420" as="sourcePoint"/>
            <mxPoint x="140" y="421" as="targetPoint"/>
            <Array as="points">
              <mxPoint x="50" y="421"/>
            </Array>
            <mxPoint as="offset"/>
          </mxGeometry>
        </mxCell>
        <mxCell id="rClXXc_5LGEYXYGb1eKr-1" value="PauseActivityItem" style="shape=umlLifeline;perimeter=lifelinePerimeter;whiteSpace=wrap;html=1;container=1;collapsible=0;recursiveResize=0;outlineConnect=0;" vertex="1" parent="1">
          <mxGeometry x="230" y="40" width="130" height="1370" as="geometry"/>
        </mxCell>
        <mxCell id="rClXXc_5LGEYXYGb1eKr-2" value="" style="html=1;points=[];perimeter=orthogonalPerimeter;" vertex="1" parent="rClXXc_5LGEYXYGb1eKr-1">
          <mxGeometry x="60" y="400" width="10" height="160" as="geometry"/>
        </mxCell>
        <mxCell id="rClXXc_5LGEYXYGb1eKr-3" style="edgeStyle=elbowEdgeStyle;rounded=0;orthogonalLoop=1;jettySize=auto;elbow=vertical;html=1;labelBackgroundColor=none;align=center;" edge="1" parent="1" source="npgmk2zXJ_EXYh8wOIcg-69" target="rClXXc_5LGEYXYGb1eKr-2">
          <mxGeometry relative="1" as="geometry">
            <Array as="points">
              <mxPoint x="220" y="450"/>
            </Array>
          </mxGeometry>
        </mxCell>
        <mxCell id="rClXXc_5LGEYXYGb1eKr-4" value="通过TransactionExecutor.executeLifeCycleState()&lt;br&gt;触发execute()" style="text;html=1;resizable=0;points=[];align=left;verticalAlign=middle;labelBackgroundColor=none;" vertex="1" connectable="0" parent="rClXXc_5LGEYXYGb1eKr-3">
          <mxGeometry y="39" relative="1" as="geometry">
            <mxPoint x="-60" y="19" as="offset"/>
          </mxGeometry>
        </mxCell>
        <mxCell id="rClXXc_5LGEYXYGb1eKr-5" style="edgeStyle=elbowEdgeStyle;rounded=0;orthogonalLoop=1;jettySize=auto;elbow=vertical;html=1;labelBackgroundColor=none;align=center;entryX=0;entryY=0.831;entryDx=0;entryDy=0;entryPerimeter=0;" edge="1" parent="1" source="npgmk2zXJ_EXYh8wOIcg-69" target="rClXXc_5LGEYXYGb1eKr-2">
          <mxGeometry relative="1" as="geometry">
            <mxPoint x="290" y="495" as="targetPoint"/>
          </mxGeometry>
        </mxCell>
        <mxCell id="rClXXc_5LGEYXYGb1eKr-6" value="&lt;span&gt;通过TransactionExecutor.executeLifeCycleState()&lt;/span&gt;&lt;br&gt;&lt;span&gt;触发postExecute()&lt;/span&gt;" style="text;html=1;resizable=0;points=[];align=right;verticalAlign=middle;labelBackgroundColor=none;" vertex="1" connectable="0" parent="rClXXc_5LGEYXYGb1eKr-5">
          <mxGeometry y="-37" relative="1" as="geometry">
            <mxPoint x="60" y="-55" as="offset"/>
          </mxGeometry>
        </mxCell>
        <mxCell id="rClXXc_5LGEYXYGb1eKr-8" style="edgeStyle=elbowEdgeStyle;rounded=0;orthogonalLoop=1;jettySize=auto;elbow=vertical;html=1;labelBackgroundColor=none;align=center;entryX=1;entryY=0.36;entryDx=0;entryDy=0;entryPerimeter=0;" edge="1" parent="1" source="rClXXc_5LGEYXYGb1eKr-2" target="rClXXc_5LGEYXYGb1eKr-7">
          <mxGeometry relative="1" as="geometry">
            <mxPoint x="-298" y="520" as="targetPoint"/>
          </mxGeometry>
        </mxCell>
        <mxCell id="rClXXc_5LGEYXYGb1eKr-9" value="activityPaused()" style="text;html=1;resizable=0;points=[];align=center;verticalAlign=middle;labelBackgroundColor=#ffffff;" vertex="1" connectable="0" parent="rClXXc_5LGEYXYGb1eKr-8">
          <mxGeometry x="0.8673" y="-2" relative="1" as="geometry">
            <mxPoint x="29" y="-9" as="offset"/>
          </mxGeometry>
        </mxCell>
        <mxCell id="rClXXc_5LGEYXYGb1eKr-11" style="edgeStyle=elbowEdgeStyle;rounded=0;orthogonalLoop=1;jettySize=auto;elbow=vertical;html=1;labelBackgroundColor=none;align=center;fillColor=#ffe6cc;strokeColor=#d79b00;dashed=1;" edge="1" parent="1" source="rClXXc_5LGEYXYGb1eKr-7" target="rClXXc_5LGEYXYGb1eKr-10">
          <mxGeometry relative="1" as="geometry"/>
        </mxCell>
        <mxCell id="rClXXc_5LGEYXYGb1eKr-12" value="Binder跨进程：activityPaused()" style="text;html=1;resizable=0;points=[];align=center;verticalAlign=middle;labelBackgroundColor=none;fontColor=#D79B00;" vertex="1" connectable="0" parent="rClXXc_5LGEYXYGb1eKr-11">
          <mxGeometry x="0.8435" y="3" relative="1" as="geometry">
            <mxPoint x="-32" y="-12" as="offset"/>
          </mxGeometry>
        </mxCell>
        <mxCell id="rClXXc_5LGEYXYGb1eKr-19" style="edgeStyle=elbowEdgeStyle;rounded=0;orthogonalLoop=1;jettySize=auto;elbow=vertical;html=1;labelBackgroundColor=none;align=center;entryX=1;entryY=0.233;entryDx=0;entryDy=0;entryPerimeter=0;" edge="1" parent="1" source="rClXXc_5LGEYXYGb1eKr-15" target="rClXXc_5LGEYXYGb1eKr-20">
          <mxGeometry relative="1" as="geometry">
            <mxPoint x="-550" y="550" as="targetPoint"/>
          </mxGeometry>
        </mxCell>
        <mxCell id="rClXXc_5LGEYXYGb1eKr-21" value="callActivityOnPause()" style="text;html=1;resizable=0;points=[];align=center;verticalAlign=middle;labelBackgroundColor=#ffffff;" vertex="1" connectable="0" parent="rClXXc_5LGEYXYGb1eKr-19">
          <mxGeometry x="0.8765" relative="1" as="geometry">
            <mxPoint x="50" y="-12" as="offset"/>
          </mxGeometry>
        </mxCell>
        <mxCell id="rClXXc_5LGEYXYGb1eKr-22" style="edgeStyle=elbowEdgeStyle;rounded=0;orthogonalLoop=1;jettySize=auto;elbow=vertical;html=1;labelBackgroundColor=none;align=center;entryX=1;entryY=0.267;entryDx=0;entryDy=0;entryPerimeter=0;" edge="1" parent="1" source="rClXXc_5LGEYXYGb1eKr-20" target="rClXXc_5LGEYXYGb1eKr-23">
          <mxGeometry relative="1" as="geometry"/>
        </mxCell>
        <mxCell id="rClXXc_5LGEYXYGb1eKr-24" value="performPause()" style="text;html=1;resizable=0;points=[];align=center;verticalAlign=middle;labelBackgroundColor=#ffffff;" vertex="1" connectable="0" parent="rClXXc_5LGEYXYGb1eKr-22">
          <mxGeometry x="0.2545" relative="1" as="geometry">
            <mxPoint x="14" y="-11" as="offset"/>
          </mxGeometry>
        </mxCell>
        <mxCell id="rClXXc_5LGEYXYGb1eKr-32" style="edgeStyle=elbowEdgeStyle;rounded=0;orthogonalLoop=1;jettySize=auto;elbow=vertical;html=1;labelBackgroundColor=none;align=center;entryX=0;entryY=0.091;entryDx=0;entryDy=0;entryPerimeter=0;" edge="1" parent="1" source="rClXXc_5LGEYXYGb1eKr-10" target="rClXXc_5LGEYXYGb1eKr-30">
          <mxGeometry relative="1" as="geometry">
            <mxPoint x="1069" y="628" as="targetPoint"/>
          </mxGeometry>
        </mxCell>
        <mxCell id="rClXXc_5LGEYXYGb1eKr-33" value="activityPausedLocked()" style="text;html=1;resizable=0;points=[];align=center;verticalAlign=middle;labelBackgroundColor=none;" vertex="1" connectable="0" parent="rClXXc_5LGEYXYGb1eKr-32">
          <mxGeometry x="0.6446" y="1" relative="1" as="geometry">
            <mxPoint x="57" y="-19" as="offset"/>
          </mxGeometry>
        </mxCell>
        <mxCell id="rClXXc_5LGEYXYGb1eKr-37" style="edgeStyle=elbowEdgeStyle;rounded=0;orthogonalLoop=1;jettySize=auto;elbow=vertical;html=1;entryX=-0.1;entryY=0.12;entryDx=0;entryDy=0;entryPerimeter=0;labelBackgroundColor=none;align=center;" edge="1" parent="1" source="rClXXc_5LGEYXYGb1eKr-30" target="rClXXc_5LGEYXYGb1eKr-36">
          <mxGeometry relative="1" as="geometry"/>
        </mxCell>
        <mxCell id="rClXXc_5LGEYXYGb1eKr-38" value="2⃣️removeMessages()" style="text;html=1;resizable=0;points=[];align=center;verticalAlign=middle;labelBackgroundColor=none;" vertex="1" connectable="0" parent="rClXXc_5LGEYXYGb1eKr-37">
          <mxGeometry y="-9" relative="1" as="geometry">
            <mxPoint y="-20" as="offset"/>
          </mxGeometry>
        </mxCell>
        <mxCell id="rClXXc_5LGEYXYGb1eKr-40" value="如果Launcher执行pause先于1⃣️延迟500ms消息完成，2⃣️会取消该消息执行" style="shape=note;whiteSpace=wrap;html=1;size=14;verticalAlign=top;align=left;spacingTop=-6;labelBackgroundColor=none;" vertex="1" parent="1">
          <mxGeometry x="1240" y="500" width="100" height="70" as="geometry"/>
        </mxCell>
        <mxCell id="rClXXc_5LGEYXYGb1eKr-43" style="edgeStyle=elbowEdgeStyle;rounded=0;orthogonalLoop=1;jettySize=auto;elbow=vertical;html=1;labelBackgroundColor=none;align=center;entryX=1;entryY=0.064;entryDx=0;entryDy=0;entryPerimeter=0;" edge="1" parent="1" source="npgmk2zXJ_EXYh8wOIcg-80" target="rClXXc_5LGEYXYGb1eKr-30">
          <mxGeometry relative="1" as="geometry">
            <mxPoint x="1222" y="629" as="targetPoint"/>
            <Array as="points">
              <mxPoint x="1300" y="627"/>
            </Array>
          </mxGeometry>
        </mxCell>
        <mxCell id="rClXXc_5LGEYXYGb1eKr-44" value="&lt;span style=&quot;&quot;&gt;activityPausedLocked()&lt;/span&gt;" style="text;html=1;resizable=0;points=[];align=center;verticalAlign=middle;labelBackgroundColor=none;" vertex="1" connectable="0" parent="rClXXc_5LGEYXYGb1eKr-43">
          <mxGeometry x="0.6239" relative="1" as="geometry">
            <mxPoint x="36" y="-17" as="offset"/>
          </mxGeometry>
        </mxCell>
        <mxCell id="rClXXc_5LGEYXYGb1eKr-45" value="&lt;span style=&quot;font-size: 11px&quot;&gt;设置超时500ms，防止需要&lt;/span&gt;&lt;span style=&quot;font-size: 11px&quot;&gt;pause的进程执行过久&lt;/span&gt;&lt;span style=&quot;font-size: 11px&quot;&gt;影响新栈的启动，正常执行会在2⃣️取消掉该消息&lt;/span&gt;" style="shape=note;whiteSpace=wrap;html=1;size=14;verticalAlign=top;align=left;spacingTop=-6;labelBackgroundColor=none;fillColor=#ffffff;" vertex="1" parent="1">
          <mxGeometry x="1260" y="290" width="100" height="90" as="geometry"/>
        </mxCell>
        <mxCell id="rClXXc_5LGEYXYGb1eKr-50" style="edgeStyle=elbowEdgeStyle;rounded=0;orthogonalLoop=1;jettySize=auto;elbow=vertical;html=1;labelBackgroundColor=none;align=center;entryX=1;entryY=0.1;entryDx=0;entryDy=0;entryPerimeter=0;" edge="1" parent="1" source="rClXXc_5LGEYXYGb1eKr-48" target="rClXXc_5LGEYXYGb1eKr-51">
          <mxGeometry relative="1" as="geometry"/>
        </mxCell>
        <mxCell id="rClXXc_5LGEYXYGb1eKr-52" value="getFocusedStack()" style="text;html=1;resizable=0;points=[];align=center;verticalAlign=middle;labelBackgroundColor=none;" vertex="1" connectable="0" parent="rClXXc_5LGEYXYGb1eKr-50">
          <mxGeometry x="0.7559" relative="1" as="geometry">
            <mxPoint x="34" y="-13" as="offset"/>
          </mxGeometry>
        </mxCell>
        <mxCell id="rClXXc_5LGEYXYGb1eKr-56" style="edgeStyle=elbowEdgeStyle;rounded=0;orthogonalLoop=1;jettySize=auto;elbow=vertical;html=1;entryX=1;entryY=0.15;entryDx=0;entryDy=0;entryPerimeter=0;labelBackgroundColor=none;align=center;" edge="1" parent="1" source="rClXXc_5LGEYXYGb1eKr-48" target="rClXXc_5LGEYXYGb1eKr-53">
          <mxGeometry relative="1" as="geometry"/>
        </mxCell>
        <mxCell id="rClXXc_5LGEYXYGb1eKr-57" value="resumeFocusedStackTopActivityLocked()" style="text;html=1;resizable=0;points=[];align=center;verticalAlign=middle;labelBackgroundColor=none;" vertex="1" connectable="0" parent="rClXXc_5LGEYXYGb1eKr-56">
          <mxGeometry x="0.7687" relative="1" as="geometry">
            <mxPoint x="85" y="-9" as="offset"/>
          </mxGeometry>
        </mxCell>
        <mxCell id="rClXXc_5LGEYXYGb1eKr-59" style="edgeStyle=elbowEdgeStyle;rounded=0;orthogonalLoop=1;jettySize=auto;elbow=vertical;html=1;entryX=0;entryY=0.15;entryDx=0;entryDy=0;entryPerimeter=0;labelBackgroundColor=none;align=center;" edge="1" parent="1" source="rClXXc_5LGEYXYGb1eKr-53" target="rClXXc_5LGEYXYGb1eKr-58">
          <mxGeometry relative="1" as="geometry"/>
        </mxCell>
        <mxCell id="rClXXc_5LGEYXYGb1eKr-60" value="resumeTopActivityUncheckedLocked()" style="text;html=1;resizable=0;points=[];align=center;verticalAlign=middle;labelBackgroundColor=none;" vertex="1" connectable="0" parent="rClXXc_5LGEYXYGb1eKr-59">
          <mxGeometry y="14" relative="1" as="geometry">
            <mxPoint x="40" y="2" as="offset"/>
          </mxGeometry>
        </mxCell>
        <mxCell id="rClXXc_5LGEYXYGb1eKr-64" style="edgeStyle=elbowEdgeStyle;rounded=0;orthogonalLoop=1;jettySize=auto;elbow=vertical;html=1;entryX=1;entryY=0.133;entryDx=0;entryDy=0;entryPerimeter=0;labelBackgroundColor=none;align=center;" edge="1" parent="1" source="rClXXc_5LGEYXYGb1eKr-61" target="rClXXc_5LGEYXYGb1eKr-63">
          <mxGeometry relative="1" as="geometry"/>
        </mxCell>
        <mxCell id="rClXXc_5LGEYXYGb1eKr-65" value="startSpecificActivityLocked()" style="text;html=1;resizable=0;points=[];align=center;verticalAlign=middle;labelBackgroundColor=none;" vertex="1" connectable="0" parent="rClXXc_5LGEYXYGb1eKr-64">
          <mxGeometry x="0.3562" y="-4" relative="1" as="geometry">
            <mxPoint x="13" y="-10" as="offset"/>
          </mxGeometry>
        </mxCell>
        <mxCell id="rClXXc_5LGEYXYGb1eKr-67" style="edgeStyle=elbowEdgeStyle;rounded=0;orthogonalLoop=1;jettySize=auto;elbow=vertical;html=1;labelBackgroundColor=none;align=center;" edge="1" parent="1" source="rClXXc_5LGEYXYGb1eKr-63" target="rClXXc_5LGEYXYGb1eKr-66">
          <mxGeometry relative="1" as="geometry"/>
        </mxCell>
        <mxCell id="rClXXc_5LGEYXYGb1eKr-68" value="startProcessLocked()" style="text;html=1;resizable=0;points=[];align=center;verticalAlign=middle;labelBackgroundColor=none;" vertex="1" connectable="0" parent="rClXXc_5LGEYXYGb1eKr-67">
          <mxGeometry x="0.1055" y="-2" relative="1" as="geometry">
            <mxPoint x="-48" y="-8" as="offset"/>
          </mxGeometry>
        </mxCell>
        <mxCell id="rClXXc_5LGEYXYGb1eKr-84" value="Handler&lt;br&gt;(ActivityManagerService&lt;br&gt;:mProcStartHandler)" style="shape=umlLifeline;perimeter=lifelinePerimeter;whiteSpace=wrap;html=1;container=1;collapsible=0;recursiveResize=0;outlineConnect=0;" vertex="1" parent="1">
          <mxGeometry x="580" y="40" width="120" height="1370" as="geometry"/>
        </mxCell>
        <mxCell id="rClXXc_5LGEYXYGb1eKr-85" value="" style="html=1;points=[];perimeter=orthogonalPerimeter;" vertex="1" parent="rClXXc_5LGEYXYGb1eKr-84">
          <mxGeometry x="55" y="850" width="10" height="20" as="geometry"/>
        </mxCell>
        <mxCell id="rClXXc_5LGEYXYGb1eKr-89" value="" style="html=1;points=[];perimeter=orthogonalPerimeter;labelBackgroundColor=none;fillColor=#ffffff;align=right;" vertex="1" parent="rClXXc_5LGEYXYGb1eKr-84">
          <mxGeometry x="55" y="890" width="10" height="30" as="geometry"/>
        </mxCell>
        <mxCell id="rClXXc_5LGEYXYGb1eKr-90" value="handleCallback()" style="html=1;verticalAlign=bottom;startArrow=oval;endArrow=block;startSize=8;labelBackgroundColor=none;align=center;" edge="1" target="rClXXc_5LGEYXYGb1eKr-89" parent="rClXXc_5LGEYXYGb1eKr-84">
          <mxGeometry x="-0.5" relative="1" as="geometry">
            <mxPoint x="-5" y="890" as="sourcePoint"/>
            <mxPoint as="offset"/>
          </mxGeometry>
        </mxCell>
        <mxCell id="rClXXc_5LGEYXYGb1eKr-86" style="edgeStyle=elbowEdgeStyle;rounded=0;orthogonalLoop=1;jettySize=auto;elbow=vertical;html=1;entryX=-0.1;entryY=0.12;entryDx=0;entryDy=0;entryPerimeter=0;labelBackgroundColor=none;align=center;" edge="1" parent="1" source="rClXXc_5LGEYXYGb1eKr-82" target="rClXXc_5LGEYXYGb1eKr-85">
          <mxGeometry relative="1" as="geometry"/>
        </mxCell>
        <mxCell id="rClXXc_5LGEYXYGb1eKr-87" value="post()" style="text;html=1;resizable=0;points=[];align=center;verticalAlign=middle;labelBackgroundColor=none;" vertex="1" connectable="0" parent="rClXXc_5LGEYXYGb1eKr-86">
          <mxGeometry y="13" relative="1" as="geometry">
            <mxPoint x="15" y="17" as="offset"/>
          </mxGeometry>
        </mxCell>
        <mxCell id="rClXXc_5LGEYXYGb1eKr-91" style="edgeStyle=elbowEdgeStyle;rounded=0;orthogonalLoop=1;jettySize=auto;elbow=vertical;html=1;entryX=1;entryY=0.125;entryDx=0;entryDy=0;entryPerimeter=0;labelBackgroundColor=none;align=center;" edge="1" parent="1" source="rClXXc_5LGEYXYGb1eKr-89" target="rClXXc_5LGEYXYGb1eKr-88">
          <mxGeometry relative="1" as="geometry"/>
        </mxCell>
        <mxCell id="rClXXc_5LGEYXYGb1eKr-92" value="startProcess()" style="text;html=1;resizable=0;points=[];align=center;verticalAlign=middle;labelBackgroundColor=none;" vertex="1" connectable="0" parent="rClXXc_5LGEYXYGb1eKr-91">
          <mxGeometry x="0.5143" y="-2" relative="1" as="geometry">
            <mxPoint x="21" y="-8" as="offset"/>
          </mxGeometry>
        </mxCell>
        <mxCell id="rClXXc_5LGEYXYGb1eKr-93" value="Process" style="shape=umlLifeline;perimeter=lifelinePerimeter;whiteSpace=wrap;html=1;container=1;collapsible=0;recursiveResize=0;outlineConnect=0;" vertex="1" parent="1">
          <mxGeometry x="1450" y="40" width="130" height="1370" as="geometry"/>
        </mxCell>
        <mxCell id="rClXXc_5LGEYXYGb1eKr-94" value="" style="html=1;points=[];perimeter=orthogonalPerimeter;align=left;" vertex="1" parent="rClXXc_5LGEYXYGb1eKr-93">
          <mxGeometry x="60" y="935" width="10" height="30" as="geometry"/>
        </mxCell>
        <mxCell id="rClXXc_5LGEYXYGb1eKr-97" style="edgeStyle=elbowEdgeStyle;rounded=0;orthogonalLoop=1;jettySize=auto;elbow=vertical;html=1;entryX=0.1;entryY=0.1;entryDx=0;entryDy=0;entryPerimeter=0;labelBackgroundColor=none;align=center;" edge="1" parent="1" source="rClXXc_5LGEYXYGb1eKr-88" target="rClXXc_5LGEYXYGb1eKr-94">
          <mxGeometry relative="1" as="geometry"/>
        </mxCell>
        <mxCell id="rClXXc_5LGEYXYGb1eKr-98" value="start()" style="text;html=1;resizable=0;points=[];align=center;verticalAlign=middle;labelBackgroundColor=none;" vertex="1" connectable="0" parent="rClXXc_5LGEYXYGb1eKr-97">
          <mxGeometry x="0.8209" y="1" relative="1" as="geometry">
            <mxPoint x="60" y="-7" as="offset"/>
          </mxGeometry>
        </mxCell>
        <mxCell id="rClXXc_5LGEYXYGb1eKr-99" value="ZygoteProcess" style="shape=umlLifeline;perimeter=lifelinePerimeter;whiteSpace=wrap;html=1;container=1;collapsible=0;recursiveResize=0;outlineConnect=0;" vertex="1" parent="1">
          <mxGeometry x="1600" y="40" width="130" height="1370" as="geometry"/>
        </mxCell>
        <mxCell id="rClXXc_5LGEYXYGb1eKr-100" value="" style="html=1;points=[];perimeter=orthogonalPerimeter;align=left;" vertex="1" parent="rClXXc_5LGEYXYGb1eKr-99">
          <mxGeometry x="60" y="940" width="10" height="230" as="geometry"/>
        </mxCell>
        <mxCell id="rClXXc_5LGEYXYGb1eKr-103" value="" style="html=1;points=[];perimeter=orthogonalPerimeter;labelBackgroundColor=none;fillColor=#ffffff;align=right;" vertex="1" parent="rClXXc_5LGEYXYGb1eKr-99">
          <mxGeometry x="65" y="960" width="10" height="200" as="geometry"/>
        </mxCell>
        <mxCell id="rClXXc_5LGEYXYGb1eKr-104" value="startViaZygote()" style="edgeStyle=orthogonalEdgeStyle;html=1;align=left;spacingLeft=2;endArrow=block;rounded=0;entryX=1;entryY=0;labelBackgroundColor=none;" edge="1" target="rClXXc_5LGEYXYGb1eKr-103" parent="rClXXc_5LGEYXYGb1eKr-99">
          <mxGeometry x="-0.0909" y="-27" relative="1" as="geometry">
            <mxPoint x="70" y="950" as="sourcePoint"/>
            <Array as="points">
              <mxPoint x="95" y="950"/>
            </Array>
            <mxPoint x="2" y="-10" as="offset"/>
          </mxGeometry>
        </mxCell>
        <mxCell id="rClXXc_5LGEYXYGb1eKr-105" value="" style="html=1;points=[];perimeter=orthogonalPerimeter;labelBackgroundColor=none;fillColor=#ffffff;align=right;" vertex="1" parent="rClXXc_5LGEYXYGb1eKr-99">
          <mxGeometry x="70" y="980" width="10" height="170" as="geometry"/>
        </mxCell>
        <mxCell id="rClXXc_5LGEYXYGb1eKr-106" value="zygoteSendArgsAndGetResult()" style="edgeStyle=orthogonalEdgeStyle;html=1;align=left;spacingLeft=2;endArrow=block;rounded=0;entryX=1;entryY=0;labelBackgroundColor=none;" edge="1" target="rClXXc_5LGEYXYGb1eKr-105" parent="rClXXc_5LGEYXYGb1eKr-99">
          <mxGeometry x="-0.0909" relative="1" as="geometry">
            <mxPoint x="75" y="970" as="sourcePoint"/>
            <Array as="points">
              <mxPoint x="100" y="970"/>
            </Array>
            <mxPoint as="offset"/>
          </mxGeometry>
        </mxCell>
        <mxCell id="rClXXc_5LGEYXYGb1eKr-101" style="edgeStyle=elbowEdgeStyle;rounded=0;orthogonalLoop=1;jettySize=auto;elbow=vertical;html=1;entryX=0;entryY=0.02;entryDx=0;entryDy=0;entryPerimeter=0;labelBackgroundColor=none;align=center;" edge="1" parent="1" source="rClXXc_5LGEYXYGb1eKr-94" target="rClXXc_5LGEYXYGb1eKr-100">
          <mxGeometry relative="1" as="geometry"/>
        </mxCell>
        <mxCell id="rClXXc_5LGEYXYGb1eKr-102" value="start()" style="text;html=1;resizable=0;points=[];align=center;verticalAlign=middle;labelBackgroundColor=none;" vertex="1" connectable="0" parent="rClXXc_5LGEYXYGb1eKr-101">
          <mxGeometry x="0.2143" y="2" relative="1" as="geometry">
            <mxPoint x="25" y="-9" as="offset"/>
          </mxGeometry>
        </mxCell>
        <mxCell id="rClXXc_5LGEYXYGb1eKr-107" value="ZygoteInit" style="shape=umlLifeline;perimeter=lifelinePerimeter;whiteSpace=wrap;html=1;container=1;collapsible=0;recursiveResize=0;outlineConnect=0;" vertex="1" parent="1">
          <mxGeometry x="1795" y="40" width="145" height="1370" as="geometry"/>
        </mxCell>
        <mxCell id="rClXXc_5LGEYXYGb1eKr-112" value="" style="html=1;points=[];perimeter=orthogonalPerimeter;labelBackgroundColor=none;fillColor=#ffffff;align=right;" vertex="1" parent="rClXXc_5LGEYXYGb1eKr-107">
          <mxGeometry x="67.5" y="100" width="10" height="120" as="geometry"/>
        </mxCell>
        <mxCell id="rClXXc_5LGEYXYGb1eKr-110" value="ZygoteServer" style="shape=umlLifeline;perimeter=lifelinePerimeter;whiteSpace=wrap;html=1;container=1;collapsible=0;recursiveResize=0;outlineConnect=0;" vertex="1" parent="1">
          <mxGeometry x="1960" y="40" width="150" height="1370" as="geometry"/>
        </mxCell>
        <mxCell id="rClXXc_5LGEYXYGb1eKr-111" value="Loop" style="shape=umlFrame;whiteSpace=wrap;html=1;labelBackgroundColor=none;fillColor=#ffffff;align=center;" vertex="1" parent="rClXXc_5LGEYXYGb1eKr-110">
          <mxGeometry y="150" width="150" height="1040" as="geometry"/>
        </mxCell>
        <mxCell id="rClXXc_5LGEYXYGb1eKr-114" value="" style="html=1;points=[];perimeter=orthogonalPerimeter;labelBackgroundColor=none;fillColor=#ffffff;align=right;" vertex="1" parent="rClXXc_5LGEYXYGb1eKr-110">
          <mxGeometry x="70" y="190" width="10" height="990" as="geometry"/>
        </mxCell>
        <mxCell id="rClXXc_5LGEYXYGb1eKr-113" value="main()" style="html=1;verticalAlign=bottom;startArrow=oval;endArrow=block;startSize=8;labelBackgroundColor=none;align=center;exitX=0;exitY=0.122;exitDx=0;exitDy=0;exitPerimeter=0;" edge="1" target="rClXXc_5LGEYXYGb1eKr-112" parent="1" source="npgmk2zXJ_EXYh8wOIcg-3">
          <mxGeometry relative="1" as="geometry">
            <mxPoint x="1805" y="140" as="sourcePoint"/>
          </mxGeometry>
        </mxCell>
        <mxCell id="rClXXc_5LGEYXYGb1eKr-115" style="edgeStyle=elbowEdgeStyle;rounded=0;orthogonalLoop=1;jettySize=auto;elbow=vertical;html=1;entryX=0;entryY=0.015;entryDx=0;entryDy=0;entryPerimeter=0;labelBackgroundColor=none;align=center;" edge="1" parent="1" source="rClXXc_5LGEYXYGb1eKr-112" target="rClXXc_5LGEYXYGb1eKr-114">
          <mxGeometry relative="1" as="geometry"/>
        </mxCell>
        <mxCell id="rClXXc_5LGEYXYGb1eKr-116" value="runSelectLoop()" style="text;html=1;resizable=0;points=[];align=center;verticalAlign=middle;labelBackgroundColor=none;" vertex="1" connectable="0" parent="rClXXc_5LGEYXYGb1eKr-115">
          <mxGeometry x="0.2516" y="3" relative="1" as="geometry">
            <mxPoint x="8" y="-11" as="offset"/>
          </mxGeometry>
        </mxCell>
        <mxCell id="rClXXc_5LGEYXYGb1eKr-117" style="edgeStyle=elbowEdgeStyle;rounded=0;orthogonalLoop=1;jettySize=auto;elbow=vertical;html=1;entryX=0;entryY=0.818;entryDx=0;entryDy=0;entryPerimeter=0;labelBackgroundColor=none;align=center;dashed=1;fillColor=#d5e8d4;strokeColor=#82b366;" edge="1" parent="1" source="rClXXc_5LGEYXYGb1eKr-105" target="rClXXc_5LGEYXYGb1eKr-114">
          <mxGeometry relative="1" as="geometry"/>
        </mxCell>
        <mxCell id="rClXXc_5LGEYXYGb1eKr-118" value="通过socket发送创建进程指令，并read()进程pid阻塞等待" style="text;html=1;resizable=0;points=[];align=center;verticalAlign=middle;labelBackgroundColor=none;fontColor=#82B366;" vertex="1" connectable="0" parent="rClXXc_5LGEYXYGb1eKr-117">
          <mxGeometry x="0.788" y="3" relative="1" as="geometry">
            <mxPoint x="-152" y="19" as="offset"/>
          </mxGeometry>
        </mxCell>
        <mxCell id="rClXXc_5LGEYXYGb1eKr-120" value="ZygoteConnection" style="shape=umlLifeline;perimeter=lifelinePerimeter;whiteSpace=wrap;html=1;container=1;collapsible=0;recursiveResize=0;outlineConnect=0;" vertex="1" parent="1">
          <mxGeometry x="2130" y="40" width="150" height="1370" as="geometry"/>
        </mxCell>
        <mxCell id="rClXXc_5LGEYXYGb1eKr-123" value="" style="html=1;points=[];perimeter=orthogonalPerimeter;labelBackgroundColor=none;fillColor=#ffffff;align=right;" vertex="1" parent="rClXXc_5LGEYXYGb1eKr-120">
          <mxGeometry x="70" y="1010" width="10" height="160" as="geometry"/>
        </mxCell>
        <mxCell id="rClXXc_5LGEYXYGb1eKr-133" value="" style="html=1;points=[];perimeter=orthogonalPerimeter;labelBackgroundColor=none;fillColor=#ffffff;align=right;" vertex="1" parent="rClXXc_5LGEYXYGb1eKr-120">
          <mxGeometry x="75" y="1100" width="10" height="40" as="geometry"/>
        </mxCell>
        <mxCell id="rClXXc_5LGEYXYGb1eKr-134" value="handleParentProc()" style="edgeStyle=orthogonalEdgeStyle;html=1;align=left;spacingLeft=2;endArrow=block;rounded=0;entryX=1;entryY=0;labelBackgroundColor=none;exitX=1;exitY=0.394;exitDx=0;exitDy=0;exitPerimeter=0;" edge="1" target="rClXXc_5LGEYXYGb1eKr-133" parent="rClXXc_5LGEYXYGb1eKr-120" source="rClXXc_5LGEYXYGb1eKr-123">
          <mxGeometry relative="1" as="geometry">
            <mxPoint x="80" y="1060" as="sourcePoint"/>
            <Array as="points">
              <mxPoint x="105" y="1073"/>
              <mxPoint x="105" y="1100"/>
            </Array>
          </mxGeometry>
        </mxCell>
        <mxCell id="rClXXc_5LGEYXYGb1eKr-124" style="edgeStyle=elbowEdgeStyle;rounded=0;orthogonalLoop=1;jettySize=auto;elbow=vertical;html=1;entryX=0;entryY=0.038;entryDx=0;entryDy=0;entryPerimeter=0;labelBackgroundColor=none;align=center;" edge="1" parent="1" source="rClXXc_5LGEYXYGb1eKr-114" target="rClXXc_5LGEYXYGb1eKr-123">
          <mxGeometry relative="1" as="geometry"/>
        </mxCell>
        <mxCell id="rClXXc_5LGEYXYGb1eKr-125" value="processOneCommand()" style="text;html=1;resizable=0;points=[];align=center;verticalAlign=middle;labelBackgroundColor=none;" vertex="1" connectable="0" parent="rClXXc_5LGEYXYGb1eKr-124">
          <mxGeometry x="0.25" y="2" relative="1" as="geometry">
            <mxPoint x="-10" y="-13" as="offset"/>
          </mxGeometry>
        </mxCell>
        <mxCell id="rClXXc_5LGEYXYGb1eKr-126" value="Zygote" style="shape=umlLifeline;perimeter=lifelinePerimeter;whiteSpace=wrap;html=1;container=1;collapsible=0;recursiveResize=0;outlineConnect=0;" vertex="1" parent="1">
          <mxGeometry x="2300" y="40" width="150" height="1370" as="geometry"/>
        </mxCell>
        <mxCell id="rClXXc_5LGEYXYGb1eKr-127" value="" style="html=1;points=[];perimeter=orthogonalPerimeter;labelBackgroundColor=none;fillColor=#ffffff;align=right;" vertex="1" parent="rClXXc_5LGEYXYGb1eKr-126">
          <mxGeometry x="70" y="1020" width="10" height="50" as="geometry"/>
        </mxCell>
        <mxCell id="rClXXc_5LGEYXYGb1eKr-130" value="" style="html=1;points=[];perimeter=orthogonalPerimeter;labelBackgroundColor=none;fillColor=#ffffff;align=right;" vertex="1" parent="rClXXc_5LGEYXYGb1eKr-126">
          <mxGeometry x="75" y="1040" width="10" height="20" as="geometry"/>
        </mxCell>
        <mxCell id="rClXXc_5LGEYXYGb1eKr-131" value="nativeForkAndSpecialize()" style="edgeStyle=orthogonalEdgeStyle;html=1;align=left;spacingLeft=2;endArrow=block;rounded=0;entryX=1;entryY=0;labelBackgroundColor=none;" edge="1" target="rClXXc_5LGEYXYGb1eKr-130" parent="rClXXc_5LGEYXYGb1eKr-126">
          <mxGeometry x="-0.8182" y="10" relative="1" as="geometry">
            <mxPoint x="80" y="1030" as="sourcePoint"/>
            <Array as="points">
              <mxPoint x="105" y="1030"/>
            </Array>
            <mxPoint as="offset"/>
          </mxGeometry>
        </mxCell>
        <mxCell id="rClXXc_5LGEYXYGb1eKr-128" style="edgeStyle=elbowEdgeStyle;rounded=0;orthogonalLoop=1;jettySize=auto;elbow=vertical;html=1;entryX=0;entryY=0.1;entryDx=0;entryDy=0;entryPerimeter=0;labelBackgroundColor=none;align=center;" edge="1" parent="1" source="rClXXc_5LGEYXYGb1eKr-123" target="rClXXc_5LGEYXYGb1eKr-127">
          <mxGeometry relative="1" as="geometry"/>
        </mxCell>
        <mxCell id="rClXXc_5LGEYXYGb1eKr-129" value="forkAndSpecialize()" style="text;html=1;resizable=0;points=[];align=center;verticalAlign=middle;labelBackgroundColor=none;" vertex="1" connectable="0" parent="rClXXc_5LGEYXYGb1eKr-128">
          <mxGeometry x="0.2625" y="2" relative="1" as="geometry">
            <mxPoint x="-1" y="-11" as="offset"/>
          </mxGeometry>
        </mxCell>
        <mxCell id="rClXXc_5LGEYXYGb1eKr-136" value="App" style="shape=umlFrame;whiteSpace=wrap;html=1;width=100;height=30;" vertex="1" parent="1">
          <mxGeometry x="2490" width="1380" height="1420" as="geometry"/>
        </mxCell>
        <mxCell id="rClXXc_5LGEYXYGb1eKr-137" value="ZygoteInit" style="shape=umlLifeline;perimeter=lifelinePerimeter;whiteSpace=wrap;html=1;container=1;collapsible=0;recursiveResize=0;outlineConnect=0;" vertex="1" parent="1">
          <mxGeometry x="2515" y="40" width="145" height="1370" as="geometry"/>
        </mxCell>
        <mxCell id="rClXXc_5LGEYXYGb1eKr-138" value="" style="html=1;points=[];perimeter=orthogonalPerimeter;labelBackgroundColor=none;fillColor=#ffffff;align=right;" vertex="1" parent="rClXXc_5LGEYXYGb1eKr-137">
          <mxGeometry x="67.5" y="100" width="10" height="120" as="geometry"/>
        </mxCell>
        <mxCell id="rClXXc_5LGEYXYGb1eKr-167" value="" style="html=1;points=[];perimeter=orthogonalPerimeter;labelBackgroundColor=none;fillColor=#ffffff;align=right;" vertex="1" parent="rClXXc_5LGEYXYGb1eKr-137">
          <mxGeometry x="68" y="1080" width="10" height="50" as="geometry"/>
        </mxCell>
        <mxCell id="rClXXc_5LGEYXYGb1eKr-181" value="" style="html=1;points=[];perimeter=orthogonalPerimeter;labelBackgroundColor=none;fillColor=#ffffff;align=right;" vertex="1" parent="rClXXc_5LGEYXYGb1eKr-137">
          <mxGeometry x="68" y="1150" width="10" height="50" as="geometry"/>
        </mxCell>
        <mxCell id="rClXXc_5LGEYXYGb1eKr-139" value="ZygoteServer" style="shape=umlLifeline;perimeter=lifelinePerimeter;whiteSpace=wrap;html=1;container=1;collapsible=0;recursiveResize=0;outlineConnect=0;" vertex="1" parent="1">
          <mxGeometry x="2680" y="40" width="150" height="1370" as="geometry"/>
        </mxCell>
        <mxCell id="rClXXc_5LGEYXYGb1eKr-140" value="Loop" style="shape=umlFrame;whiteSpace=wrap;html=1;labelBackgroundColor=none;fillColor=#ffffff;align=center;" vertex="1" parent="rClXXc_5LGEYXYGb1eKr-139">
          <mxGeometry y="150" width="150" height="1030" as="geometry"/>
        </mxCell>
        <mxCell id="rClXXc_5LGEYXYGb1eKr-141" value="" style="html=1;points=[];perimeter=orthogonalPerimeter;labelBackgroundColor=none;fillColor=#ffffff;align=right;" vertex="1" parent="rClXXc_5LGEYXYGb1eKr-139">
          <mxGeometry x="70" y="190" width="10" height="980" as="geometry"/>
        </mxCell>
        <mxCell id="rClXXc_5LGEYXYGb1eKr-142" value="main()" style="html=1;verticalAlign=bottom;startArrow=oval;endArrow=block;startSize=8;labelBackgroundColor=none;align=center;exitX=0;exitY=0.122;exitDx=0;exitDy=0;exitPerimeter=0;" edge="1" source="rClXXc_5LGEYXYGb1eKr-136" target="rClXXc_5LGEYXYGb1eKr-138" parent="1">
          <mxGeometry relative="1" as="geometry">
            <mxPoint x="2525" y="140" as="sourcePoint"/>
          </mxGeometry>
        </mxCell>
        <mxCell id="rClXXc_5LGEYXYGb1eKr-143" style="edgeStyle=elbowEdgeStyle;rounded=0;orthogonalLoop=1;jettySize=auto;elbow=vertical;html=1;entryX=0;entryY=0.015;entryDx=0;entryDy=0;entryPerimeter=0;labelBackgroundColor=none;align=center;" edge="1" source="rClXXc_5LGEYXYGb1eKr-138" target="rClXXc_5LGEYXYGb1eKr-141" parent="1">
          <mxGeometry relative="1" as="geometry"/>
        </mxCell>
        <mxCell id="rClXXc_5LGEYXYGb1eKr-144" value="runSelectLoop()" style="text;html=1;resizable=0;points=[];align=center;verticalAlign=middle;labelBackgroundColor=none;" vertex="1" connectable="0" parent="rClXXc_5LGEYXYGb1eKr-143">
          <mxGeometry x="0.2516" y="3" relative="1" as="geometry">
            <mxPoint x="8" y="-11" as="offset"/>
          </mxGeometry>
        </mxCell>
        <mxCell id="rClXXc_5LGEYXYGb1eKr-145" value="ZygoteConnection" style="shape=umlLifeline;perimeter=lifelinePerimeter;whiteSpace=wrap;html=1;container=1;collapsible=0;recursiveResize=0;outlineConnect=0;" vertex="1" parent="1">
          <mxGeometry x="2850" y="40" width="150" height="1370" as="geometry"/>
        </mxCell>
        <mxCell id="rClXXc_5LGEYXYGb1eKr-146" value="" style="html=1;points=[];perimeter=orthogonalPerimeter;labelBackgroundColor=none;fillColor=#ffffff;align=right;" vertex="1" parent="rClXXc_5LGEYXYGb1eKr-145">
          <mxGeometry x="70" y="1010" width="10" height="100" as="geometry"/>
        </mxCell>
        <mxCell id="rClXXc_5LGEYXYGb1eKr-147" value="" style="html=1;points=[];perimeter=orthogonalPerimeter;labelBackgroundColor=none;fillColor=#ffffff;align=right;" vertex="1" parent="rClXXc_5LGEYXYGb1eKr-145">
          <mxGeometry x="75" y="1080" width="10" height="25" as="geometry"/>
        </mxCell>
        <mxCell id="rClXXc_5LGEYXYGb1eKr-148" value="handleChildProc()" style="edgeStyle=orthogonalEdgeStyle;html=1;align=left;spacingLeft=2;endArrow=block;rounded=0;entryX=1;entryY=0;labelBackgroundColor=none;" edge="1" parent="rClXXc_5LGEYXYGb1eKr-145" target="rClXXc_5LGEYXYGb1eKr-147">
          <mxGeometry x="0.625" y="10" relative="1" as="geometry">
            <mxPoint x="80" y="1045" as="sourcePoint"/>
            <Array as="points">
              <mxPoint x="80" y="1070"/>
              <mxPoint x="105" y="1070"/>
              <mxPoint x="105" y="1080"/>
            </Array>
            <mxPoint as="offset"/>
          </mxGeometry>
        </mxCell>
        <mxCell id="rClXXc_5LGEYXYGb1eKr-149" style="edgeStyle=elbowEdgeStyle;rounded=0;orthogonalLoop=1;jettySize=auto;elbow=vertical;html=1;entryX=0;entryY=0.125;entryDx=0;entryDy=0;entryPerimeter=0;labelBackgroundColor=none;align=center;" edge="1" source="rClXXc_5LGEYXYGb1eKr-141" target="rClXXc_5LGEYXYGb1eKr-146" parent="1">
          <mxGeometry relative="1" as="geometry"/>
        </mxCell>
        <mxCell id="rClXXc_5LGEYXYGb1eKr-150" value="processOneCommand()" style="text;html=1;resizable=0;points=[];align=center;verticalAlign=middle;labelBackgroundColor=none;" vertex="1" connectable="0" parent="rClXXc_5LGEYXYGb1eKr-149">
          <mxGeometry x="0.25" y="2" relative="1" as="geometry">
            <mxPoint x="-10" y="-13" as="offset"/>
          </mxGeometry>
        </mxCell>
        <mxCell id="rClXXc_5LGEYXYGb1eKr-151" value="Zygote" style="shape=umlLifeline;perimeter=lifelinePerimeter;whiteSpace=wrap;html=1;container=1;collapsible=0;recursiveResize=0;outlineConnect=0;" vertex="1" parent="1">
          <mxGeometry x="3020" y="40" width="150" height="1370" as="geometry"/>
        </mxCell>
        <mxCell id="rClXXc_5LGEYXYGb1eKr-152" value="" style="html=1;points=[];perimeter=orthogonalPerimeter;labelBackgroundColor=none;fillColor=#ffffff;align=right;" vertex="1" parent="rClXXc_5LGEYXYGb1eKr-151">
          <mxGeometry x="70" y="1020" width="10" height="50" as="geometry"/>
        </mxCell>
        <mxCell id="rClXXc_5LGEYXYGb1eKr-153" value="" style="html=1;points=[];perimeter=orthogonalPerimeter;labelBackgroundColor=none;fillColor=#ffffff;align=right;" vertex="1" parent="rClXXc_5LGEYXYGb1eKr-151">
          <mxGeometry x="75" y="1040" width="10" height="20" as="geometry"/>
        </mxCell>
        <mxCell id="rClXXc_5LGEYXYGb1eKr-154" value="nativeForkAndSpecialize()" style="edgeStyle=orthogonalEdgeStyle;html=1;align=left;spacingLeft=2;endArrow=block;rounded=0;entryX=1;entryY=0;labelBackgroundColor=none;" edge="1" parent="rClXXc_5LGEYXYGb1eKr-151" target="rClXXc_5LGEYXYGb1eKr-153">
          <mxGeometry relative="1" as="geometry">
            <mxPoint x="80" y="1030" as="sourcePoint"/>
            <Array as="points">
              <mxPoint x="105" y="1030"/>
            </Array>
          </mxGeometry>
        </mxCell>
        <mxCell id="rClXXc_5LGEYXYGb1eKr-155" style="edgeStyle=elbowEdgeStyle;rounded=0;orthogonalLoop=1;jettySize=auto;elbow=vertical;html=1;entryX=0;entryY=0.1;entryDx=0;entryDy=0;entryPerimeter=0;labelBackgroundColor=none;align=center;" edge="1" source="rClXXc_5LGEYXYGb1eKr-146" target="rClXXc_5LGEYXYGb1eKr-152" parent="1">
          <mxGeometry relative="1" as="geometry"/>
        </mxCell>
        <mxCell id="rClXXc_5LGEYXYGb1eKr-156" value="forkAndSpecialize()" style="text;html=1;resizable=0;points=[];align=center;verticalAlign=middle;labelBackgroundColor=none;" vertex="1" connectable="0" parent="rClXXc_5LGEYXYGb1eKr-155">
          <mxGeometry x="0.2625" y="2" relative="1" as="geometry">
            <mxPoint x="-1" y="-11" as="offset"/>
          </mxGeometry>
        </mxCell>
        <mxCell id="rClXXc_5LGEYXYGb1eKr-158" style="edgeStyle=elbowEdgeStyle;rounded=0;orthogonalLoop=1;jettySize=auto;elbow=vertical;html=1;labelBackgroundColor=none;align=center;fillColor=#f8cecc;strokeColor=#FF3333;entryX=0;entryY=0.2;entryDx=0;entryDy=0;entryPerimeter=0;" edge="1" parent="1" source="rClXXc_5LGEYXYGb1eKr-130" target="rClXXc_5LGEYXYGb1eKr-153">
          <mxGeometry relative="1" as="geometry"/>
        </mxCell>
        <mxCell id="rClXXc_5LGEYXYGb1eKr-164" value="底层fork出app进程" style="text;html=1;resizable=0;points=[];align=center;verticalAlign=middle;labelBackgroundColor=none;fontColor=#FF3333;" vertex="1" connectable="0" parent="rClXXc_5LGEYXYGb1eKr-158">
          <mxGeometry x="0.2264" y="-1" relative="1" as="geometry">
            <mxPoint x="-370" y="10" as="offset"/>
          </mxGeometry>
        </mxCell>
        <mxCell id="rClXXc_5LGEYXYGb1eKr-159" style="edgeStyle=elbowEdgeStyle;rounded=0;orthogonalLoop=1;jettySize=auto;elbow=vertical;html=1;entryX=0.9;entryY=0.306;entryDx=0;entryDy=0;entryPerimeter=0;labelBackgroundColor=none;align=center;dashed=1;endArrow=open;endFill=0;" edge="1" parent="1" source="rClXXc_5LGEYXYGb1eKr-127" target="rClXXc_5LGEYXYGb1eKr-123">
          <mxGeometry relative="1" as="geometry"/>
        </mxCell>
        <mxCell id="rClXXc_5LGEYXYGb1eKr-160" value="return pid;(pid &amp;gt; 0)" style="text;html=1;resizable=0;points=[];align=center;verticalAlign=middle;labelBackgroundColor=#ffffff;" vertex="1" connectable="0" parent="rClXXc_5LGEYXYGb1eKr-159">
          <mxGeometry x="0.2671" y="1" relative="1" as="geometry">
            <mxPoint x="22" y="-10" as="offset"/>
          </mxGeometry>
        </mxCell>
        <mxCell id="rClXXc_5LGEYXYGb1eKr-161" style="edgeStyle=elbowEdgeStyle;rounded=0;orthogonalLoop=1;jettySize=auto;elbow=vertical;html=1;entryX=1;entryY=0.771;entryDx=0;entryDy=0;entryPerimeter=0;dashed=1;labelBackgroundColor=none;endArrow=classic;endFill=1;align=center;fillColor=#d5e8d4;strokeColor=#82b366;" edge="1" parent="1" source="rClXXc_5LGEYXYGb1eKr-133" target="rClXXc_5LGEYXYGb1eKr-105">
          <mxGeometry relative="1" as="geometry"/>
        </mxCell>
        <mxCell id="rClXXc_5LGEYXYGb1eKr-163" value="&lt;span&gt;通过socket发送创建的App进程pid&lt;/span&gt;" style="text;html=1;resizable=0;points=[];align=center;verticalAlign=middle;labelBackgroundColor=none;fontColor=#82B366;" vertex="1" connectable="0" parent="rClXXc_5LGEYXYGb1eKr-161">
          <mxGeometry x="0.7029" relative="1" as="geometry">
            <mxPoint x="22" y="-16" as="offset"/>
          </mxGeometry>
        </mxCell>
        <mxCell id="rClXXc_5LGEYXYGb1eKr-165" style="edgeStyle=elbowEdgeStyle;rounded=0;orthogonalLoop=1;jettySize=auto;elbow=vertical;html=1;entryX=1;entryY=0.959;entryDx=0;entryDy=0;entryPerimeter=0;dashed=1;labelBackgroundColor=none;endArrow=open;endFill=0;align=center;" edge="1" parent="1" target="rClXXc_5LGEYXYGb1eKr-114">
          <mxGeometry relative="1" as="geometry">
            <mxPoint x="2200" y="1179" as="sourcePoint"/>
            <Array as="points">
              <mxPoint x="2120" y="1179"/>
            </Array>
          </mxGeometry>
        </mxCell>
        <mxCell id="rClXXc_5LGEYXYGb1eKr-166" value="return null&lt;br&gt;循环继续" style="text;html=1;resizable=0;points=[];align=left;verticalAlign=middle;labelBackgroundColor=none;" vertex="1" connectable="0" parent="rClXXc_5LGEYXYGb1eKr-165">
          <mxGeometry y="10" relative="1" as="geometry">
            <mxPoint x="-72" y="10" as="offset"/>
          </mxGeometry>
        </mxCell>
        <mxCell id="rClXXc_5LGEYXYGb1eKr-168" style="edgeStyle=elbowEdgeStyle;rounded=0;orthogonalLoop=1;jettySize=auto;elbow=vertical;html=1;entryX=1;entryY=0.057;entryDx=0;entryDy=0;entryPerimeter=0;labelBackgroundColor=none;endArrow=classic;endFill=1;align=center;" edge="1" parent="1" source="rClXXc_5LGEYXYGb1eKr-147" target="rClXXc_5LGEYXYGb1eKr-167">
          <mxGeometry relative="1" as="geometry"/>
        </mxCell>
        <mxCell id="rClXXc_5LGEYXYGb1eKr-169" value="zygoteInit()" style="text;html=1;resizable=0;points=[];align=center;verticalAlign=middle;labelBackgroundColor=none;" vertex="1" connectable="0" parent="rClXXc_5LGEYXYGb1eKr-168">
          <mxGeometry x="0.7538" relative="1" as="geometry">
            <mxPoint x="7" y="-10" as="offset"/>
          </mxGeometry>
        </mxCell>
        <mxCell id="rClXXc_5LGEYXYGb1eKr-171" value="RuntimeInit" style="shape=umlLifeline;perimeter=lifelinePerimeter;whiteSpace=wrap;html=1;container=1;collapsible=0;recursiveResize=0;outlineConnect=0;" vertex="1" parent="1">
          <mxGeometry x="3190" y="40" width="150" height="1370" as="geometry"/>
        </mxCell>
        <mxCell id="rClXXc_5LGEYXYGb1eKr-172" value="" style="html=1;points=[];perimeter=orthogonalPerimeter;labelBackgroundColor=none;fillColor=#ffffff;align=right;" vertex="1" parent="rClXXc_5LGEYXYGb1eKr-171">
          <mxGeometry x="70" y="1110" width="10" height="50" as="geometry"/>
        </mxCell>
        <mxCell id="rClXXc_5LGEYXYGb1eKr-177" value="" style="html=1;points=[];perimeter=orthogonalPerimeter;labelBackgroundColor=none;fillColor=#ffffff;align=right;" vertex="1" parent="rClXXc_5LGEYXYGb1eKr-171">
          <mxGeometry x="75" y="1129" width="10" height="21" as="geometry"/>
        </mxCell>
        <mxCell id="rClXXc_5LGEYXYGb1eKr-178" value="findStaticMain()" style="edgeStyle=orthogonalEdgeStyle;html=1;align=left;spacingLeft=2;endArrow=block;rounded=0;entryX=1;entryY=0;labelBackgroundColor=none;" edge="1" target="rClXXc_5LGEYXYGb1eKr-177" parent="rClXXc_5LGEYXYGb1eKr-171">
          <mxGeometry relative="1" as="geometry">
            <mxPoint x="80" y="1120" as="sourcePoint"/>
            <Array as="points">
              <mxPoint x="105" y="1120"/>
            </Array>
          </mxGeometry>
        </mxCell>
        <mxCell id="rClXXc_5LGEYXYGb1eKr-175" style="edgeStyle=elbowEdgeStyle;rounded=0;orthogonalLoop=1;jettySize=auto;elbow=vertical;html=1;entryX=-0.1;entryY=0.14;entryDx=0;entryDy=0;entryPerimeter=0;labelBackgroundColor=none;endArrow=classic;endFill=1;align=center;" edge="1" parent="1" source="rClXXc_5LGEYXYGb1eKr-167" target="rClXXc_5LGEYXYGb1eKr-172">
          <mxGeometry relative="1" as="geometry"/>
        </mxCell>
        <mxCell id="rClXXc_5LGEYXYGb1eKr-176" value="applicationInit()" style="text;html=1;resizable=0;points=[];align=center;verticalAlign=middle;labelBackgroundColor=none;" vertex="1" connectable="0" parent="rClXXc_5LGEYXYGb1eKr-175">
          <mxGeometry x="0.6517" relative="1" as="geometry">
            <mxPoint x="57" y="-12" as="offset"/>
          </mxGeometry>
        </mxCell>
        <mxCell id="rClXXc_5LGEYXYGb1eKr-179" style="edgeStyle=elbowEdgeStyle;rounded=0;orthogonalLoop=1;jettySize=auto;elbow=vertical;html=1;entryX=1;entryY=0.971;entryDx=0;entryDy=0;entryPerimeter=0;labelBackgroundColor=none;endArrow=open;endFill=0;align=center;dashed=1;" edge="1" parent="1" source="rClXXc_5LGEYXYGb1eKr-177" target="rClXXc_5LGEYXYGb1eKr-141">
          <mxGeometry relative="1" as="geometry"/>
        </mxCell>
        <mxCell id="rClXXc_5LGEYXYGb1eKr-180" value="return new MethodAndArgsCaller()" style="text;html=1;resizable=0;points=[];align=center;verticalAlign=middle;labelBackgroundColor=none;" vertex="1" connectable="0" parent="rClXXc_5LGEYXYGb1eKr-179">
          <mxGeometry x="0.5929" y="-1" relative="1" as="geometry">
            <mxPoint x="157" y="11" as="offset"/>
          </mxGeometry>
        </mxCell>
        <mxCell id="rClXXc_5LGEYXYGb1eKr-182" style="edgeStyle=elbowEdgeStyle;rounded=0;orthogonalLoop=1;jettySize=auto;elbow=vertical;html=1;entryX=0.9;entryY=0.24;entryDx=0;entryDy=0;entryPerimeter=0;labelBackgroundColor=none;endArrow=open;endFill=0;align=center;dashed=1;" edge="1" parent="1" source="rClXXc_5LGEYXYGb1eKr-141" target="rClXXc_5LGEYXYGb1eKr-181">
          <mxGeometry relative="1" as="geometry"/>
        </mxCell>
        <mxCell id="rClXXc_5LGEYXYGb1eKr-183" value="return&amp;nbsp;command&lt;br&gt;退出循环" style="text;html=1;resizable=0;points=[];align=left;verticalAlign=middle;labelBackgroundColor=none;" vertex="1" connectable="0" parent="rClXXc_5LGEYXYGb1eKr-182">
          <mxGeometry x="0.6203" relative="1" as="geometry">
            <mxPoint x="28" y="-2" as="offset"/>
          </mxGeometry>
        </mxCell>
        <mxCell id="rClXXc_5LGEYXYGb1eKr-184" value="ActivityThread" style="shape=umlLifeline;perimeter=lifelinePerimeter;whiteSpace=wrap;html=1;container=1;collapsible=0;recursiveResize=0;outlineConnect=0;" vertex="1" parent="1">
          <mxGeometry x="3360" y="40" width="150" height="1370" as="geometry"/>
        </mxCell>
        <mxCell id="rClXXc_5LGEYXYGb1eKr-185" value="" style="html=1;points=[];perimeter=orthogonalPerimeter;labelBackgroundColor=none;fillColor=#ffffff;align=right;" vertex="1" parent="rClXXc_5LGEYXYGb1eKr-184">
          <mxGeometry x="70" y="1190" width="10" height="170" as="geometry"/>
        </mxCell>
        <mxCell id="rClXXc_5LGEYXYGb1eKr-191" value="" style="html=1;points=[];perimeter=orthogonalPerimeter;labelBackgroundColor=none;fillColor=#ffffff;fontColor=#82B366;align=center;" vertex="1" parent="rClXXc_5LGEYXYGb1eKr-184">
          <mxGeometry x="75" y="1210" width="10" height="140" as="geometry"/>
        </mxCell>
        <mxCell id="rClXXc_5LGEYXYGb1eKr-192" value="attach()" style="edgeStyle=orthogonalEdgeStyle;html=1;align=left;spacingLeft=2;endArrow=block;rounded=0;entryX=1;entryY=0;labelBackgroundColor=none;strokeColor=#000000;fontColor=#000000;" edge="1" target="rClXXc_5LGEYXYGb1eKr-191" parent="rClXXc_5LGEYXYGb1eKr-184">
          <mxGeometry relative="1" as="geometry">
            <mxPoint x="80" y="1200" as="sourcePoint"/>
            <Array as="points">
              <mxPoint x="105" y="1200"/>
            </Array>
          </mxGeometry>
        </mxCell>
        <mxCell id="rClXXc_5LGEYXYGb1eKr-221" value="" style="html=1;points=[];perimeter=orthogonalPerimeter;labelBackgroundColor=none;fillColor=#ffffff;fontColor=#000000;align=center;" vertex="1" parent="rClXXc_5LGEYXYGb1eKr-184">
          <mxGeometry x="80" y="1280" width="10" height="20" as="geometry"/>
        </mxCell>
        <mxCell id="rClXXc_5LGEYXYGb1eKr-188" style="edgeStyle=elbowEdgeStyle;rounded=0;orthogonalLoop=1;jettySize=auto;elbow=vertical;html=1;entryX=0;entryY=0.025;entryDx=0;entryDy=0;entryPerimeter=0;labelBackgroundColor=none;endArrow=classic;endFill=1;align=center;" edge="1" parent="1" source="rClXXc_5LGEYXYGb1eKr-181" target="rClXXc_5LGEYXYGb1eKr-185">
          <mxGeometry relative="1" as="geometry"/>
        </mxCell>
        <mxCell id="rClXXc_5LGEYXYGb1eKr-189" value="&lt;span style=&quot;background-color: rgb(248 , 249 , 250)&quot;&gt;MethodAndArgsCaller.run()中反射调用：&lt;/span&gt;main()" style="text;html=1;resizable=0;points=[];align=center;verticalAlign=middle;labelBackgroundColor=#ffffff;" vertex="1" connectable="0" parent="rClXXc_5LGEYXYGb1eKr-188">
          <mxGeometry x="0.8542" relative="1" as="geometry">
            <mxPoint x="-79" y="-13" as="offset"/>
          </mxGeometry>
        </mxCell>
        <mxCell id="rClXXc_5LGEYXYGb1eKr-194" style="edgeStyle=elbowEdgeStyle;rounded=0;orthogonalLoop=1;jettySize=auto;elbow=vertical;html=1;labelBackgroundColor=none;endArrow=classic;endFill=1;strokeColor=#d79b00;fontColor=#000000;align=center;entryX=1;entryY=0.157;entryDx=0;entryDy=0;entryPerimeter=0;fillColor=#ffe6cc;dashed=1;" edge="1" parent="1" source="rClXXc_5LGEYXYGb1eKr-191" target="rClXXc_5LGEYXYGb1eKr-193">
          <mxGeometry relative="1" as="geometry"/>
        </mxCell>
        <mxCell id="rClXXc_5LGEYXYGb1eKr-195" value="Binder跨进程调用：attachApplication()" style="text;html=1;resizable=0;points=[];align=center;verticalAlign=middle;labelBackgroundColor=none;fontColor=#D79B00;" vertex="1" connectable="0" parent="rClXXc_5LGEYXYGb1eKr-194">
          <mxGeometry x="0.9735" y="-2" relative="1" as="geometry">
            <mxPoint x="76" y="-8" as="offset"/>
          </mxGeometry>
        </mxCell>
        <mxCell id="rClXXc_5LGEYXYGb1eKr-196" value="ActivityThread.&lt;br&gt;ApplicationThread" style="shape=umlLifeline;perimeter=lifelinePerimeter;whiteSpace=wrap;html=1;container=1;collapsible=0;recursiveResize=0;outlineConnect=0;" vertex="1" parent="1">
          <mxGeometry x="3530" y="40" width="150" height="1370" as="geometry"/>
        </mxCell>
        <mxCell id="rClXXc_5LGEYXYGb1eKr-197" value="" style="html=1;points=[];perimeter=orthogonalPerimeter;labelBackgroundColor=none;fillColor=#ffffff;align=right;" vertex="1" parent="rClXXc_5LGEYXYGb1eKr-196">
          <mxGeometry x="70" y="1260" width="10" height="70" as="geometry"/>
        </mxCell>
        <mxCell id="rClXXc_5LGEYXYGb1eKr-200" style="edgeStyle=elbowEdgeStyle;rounded=0;orthogonalLoop=1;jettySize=auto;elbow=vertical;html=1;dashed=1;labelBackgroundColor=none;endArrow=classic;endFill=1;strokeColor=#D79B00;fontColor=#D79B00;align=center;exitX=1;exitY=0.5;exitDx=0;exitDy=0;exitPerimeter=0;" edge="1" parent="1" source="rClXXc_5LGEYXYGb1eKr-201">
          <mxGeometry relative="1" as="geometry">
            <mxPoint x="500" y="1313" as="sourcePoint"/>
            <mxPoint x="3600" y="1309" as="targetPoint"/>
            <Array as="points">
              <mxPoint x="3595" y="1309"/>
            </Array>
          </mxGeometry>
        </mxCell>
        <mxCell id="rClXXc_5LGEYXYGb1eKr-203" value="Binder跨进程：bindApplication()" style="text;html=1;resizable=0;points=[];align=center;verticalAlign=middle;labelBackgroundColor=none;fontColor=#D79B00;" vertex="1" connectable="0" parent="rClXXc_5LGEYXYGb1eKr-200">
          <mxGeometry x="0.92" y="-1" relative="1" as="geometry">
            <mxPoint x="-166" y="-10" as="offset"/>
          </mxGeometry>
        </mxCell>
        <mxCell id="rClXXc_5LGEYXYGb1eKr-205" style="edgeStyle=elbowEdgeStyle;rounded=0;orthogonalLoop=1;jettySize=auto;elbow=vertical;html=1;entryX=0;entryY=0.1;entryDx=0;entryDy=0;entryPerimeter=0;labelBackgroundColor=none;endArrow=classic;endFill=1;strokeColor=#000000;fontColor=#000000;align=center;exitX=1;exitY=0.9;exitDx=0;exitDy=0;exitPerimeter=0;" edge="1" parent="1" source="rClXXc_5LGEYXYGb1eKr-201" target="rClXXc_5LGEYXYGb1eKr-204">
          <mxGeometry relative="1" as="geometry">
            <mxPoint x="500" y="1324" as="sourcePoint"/>
            <Array as="points">
              <mxPoint x="910" y="1325"/>
            </Array>
          </mxGeometry>
        </mxCell>
        <mxCell id="rClXXc_5LGEYXYGb1eKr-206" value="attachApplicationLocked()" style="text;html=1;resizable=0;points=[];align=center;verticalAlign=middle;labelBackgroundColor=none;fontColor=#000000;" vertex="1" connectable="0" parent="rClXXc_5LGEYXYGb1eKr-205">
          <mxGeometry x="0.455" y="-1" relative="1" as="geometry">
            <mxPoint x="22" y="14" as="offset"/>
          </mxGeometry>
        </mxCell>
        <mxCell id="rClXXc_5LGEYXYGb1eKr-209" style="edgeStyle=elbowEdgeStyle;rounded=0;orthogonalLoop=1;jettySize=auto;elbow=vertical;html=1;labelBackgroundColor=none;endArrow=classic;endFill=1;strokeColor=#D79B00;fontColor=#000000;align=center;dashed=1;" edge="1" parent="1" source="rClXXc_5LGEYXYGb1eKr-207" target="rClXXc_5LGEYXYGb1eKr-197">
          <mxGeometry relative="1" as="geometry"/>
        </mxCell>
        <mxCell id="rClXXc_5LGEYXYGb1eKr-210" value="&lt;span style=&quot;color: rgb(215 , 155 , 0)&quot;&gt;Binder跨进程：scheduleTransaction()&lt;/span&gt;" style="text;html=1;resizable=0;points=[];align=center;verticalAlign=middle;labelBackgroundColor=none;fontColor=#000000;" vertex="1" connectable="0" parent="rClXXc_5LGEYXYGb1eKr-209">
          <mxGeometry x="0.8796" y="-1" relative="1" as="geometry">
            <mxPoint x="-139" y="-11" as="offset"/>
          </mxGeometry>
        </mxCell>
        <mxCell id="rClXXc_5LGEYXYGb1eKr-211" value="Lopper&lt;br&gt;(sMainLooper)" style="shape=umlLifeline;perimeter=lifelinePerimeter;whiteSpace=wrap;html=1;container=1;collapsible=0;recursiveResize=0;outlineConnect=0;" vertex="1" parent="1">
          <mxGeometry x="3700" y="40" width="150" height="1370" as="geometry"/>
        </mxCell>
        <mxCell id="rClXXc_5LGEYXYGb1eKr-212" value="" style="html=1;points=[];perimeter=orthogonalPerimeter;labelBackgroundColor=none;fillColor=#ffffff;align=right;" vertex="1" parent="rClXXc_5LGEYXYGb1eKr-211">
          <mxGeometry x="70" y="1210" width="10" height="25" as="geometry"/>
        </mxCell>
        <mxCell id="rClXXc_5LGEYXYGb1eKr-215" value="" style="html=1;points=[];perimeter=orthogonalPerimeter;labelBackgroundColor=none;fillColor=#ffffff;align=right;" vertex="1" parent="rClXXc_5LGEYXYGb1eKr-211">
          <mxGeometry x="70" y="1330" width="10" height="25" as="geometry"/>
        </mxCell>
        <mxCell id="rClXXc_5LGEYXYGb1eKr-213" style="edgeStyle=elbowEdgeStyle;rounded=0;orthogonalLoop=1;jettySize=auto;elbow=vertical;html=1;entryX=-0.1;entryY=0.52;entryDx=0;entryDy=0;entryPerimeter=0;labelBackgroundColor=none;endArrow=classic;endFill=1;strokeColor=#000000;fontColor=#000000;align=center;" edge="1" parent="1" source="rClXXc_5LGEYXYGb1eKr-191" target="rClXXc_5LGEYXYGb1eKr-212">
          <mxGeometry relative="1" as="geometry"/>
        </mxCell>
        <mxCell id="rClXXc_5LGEYXYGb1eKr-214" value="prepareMainLooper()" style="text;html=1;resizable=0;points=[];align=center;verticalAlign=middle;labelBackgroundColor=none;fontColor=#000000;" vertex="1" connectable="0" parent="rClXXc_5LGEYXYGb1eKr-213">
          <mxGeometry x="0.5741" y="2" relative="1" as="geometry">
            <mxPoint y="-11" as="offset"/>
          </mxGeometry>
        </mxCell>
        <mxCell id="rClXXc_5LGEYXYGb1eKr-216" style="edgeStyle=elbowEdgeStyle;rounded=0;orthogonalLoop=1;jettySize=auto;elbow=vertical;html=1;entryX=0;entryY=0.56;entryDx=0;entryDy=0;entryPerimeter=0;labelBackgroundColor=none;endArrow=classic;endFill=1;strokeColor=#000000;fontColor=#000000;align=center;" edge="1" parent="1" source="rClXXc_5LGEYXYGb1eKr-191" target="rClXXc_5LGEYXYGb1eKr-215">
          <mxGeometry relative="1" as="geometry"/>
        </mxCell>
        <mxCell id="rClXXc_5LGEYXYGb1eKr-217" value="loop()" style="text;html=1;resizable=0;points=[];align=center;verticalAlign=middle;labelBackgroundColor=none;fontColor=#000000;" vertex="1" connectable="0" parent="rClXXc_5LGEYXYGb1eKr-216">
          <mxGeometry x="0.5631" y="3" relative="1" as="geometry">
            <mxPoint x="41" y="-11" as="offset"/>
          </mxGeometry>
        </mxCell>
        <mxCell id="rClXXc_5LGEYXYGb1eKr-222" style="edgeStyle=elbowEdgeStyle;rounded=0;orthogonalLoop=1;jettySize=auto;elbow=vertical;html=1;entryX=1.1;entryY=0.32;entryDx=0;entryDy=0;entryPerimeter=0;labelBackgroundColor=none;endArrow=classic;endFill=1;strokeColor=#000000;fontColor=#000000;align=center;" edge="1" parent="1" source="rClXXc_5LGEYXYGb1eKr-197" target="rClXXc_5LGEYXYGb1eKr-221">
          <mxGeometry relative="1" as="geometry"/>
        </mxCell>
        <mxCell id="rClXXc_5LGEYXYGb1eKr-223" value="sendMessage()" style="text;html=1;resizable=0;points=[];align=center;verticalAlign=middle;labelBackgroundColor=none;fontColor=#000000;" vertex="1" connectable="0" parent="rClXXc_5LGEYXYGb1eKr-222">
          <mxGeometry x="0.3691" y="4" relative="1" as="geometry">
            <mxPoint x="22" as="offset"/>
          </mxGeometry>
        </mxCell>
        <mxCell id="rClXXc_5LGEYXYGb1eKr-224" style="edgeStyle=elbowEdgeStyle;rounded=0;orthogonalLoop=1;jettySize=auto;elbow=vertical;html=1;entryX=1;entryY=0.48;entryDx=0;entryDy=0;entryPerimeter=0;labelBackgroundColor=none;endArrow=classic;endFill=1;strokeColor=#000000;fontColor=#000000;align=center;" edge="1" parent="1" source="rClXXc_5LGEYXYGb1eKr-197" target="rClXXc_5LGEYXYGb1eKr-226">
          <mxGeometry relative="1" as="geometry"/>
        </mxCell>
        <mxCell id="rClXXc_5LGEYXYGb1eKr-225" value="scheduleTransaction()" style="text;html=1;resizable=0;points=[];align=center;verticalAlign=middle;labelBackgroundColor=none;fontColor=#000000;" vertex="1" connectable="0" parent="rClXXc_5LGEYXYGb1eKr-224">
          <mxGeometry x="0.1355" y="1" relative="1" as="geometry">
            <mxPoint x="15" y="-8" as="offset"/>
          </mxGeometry>
        </mxCell>
        <mxCell id="rClXXc_5LGEYXYGb1eKr-226" value="" style="html=1;points=[];perimeter=orthogonalPerimeter;labelBackgroundColor=none;fillColor=#ffffff;fontColor=#000000;align=center;" vertex="1" parent="1">
          <mxGeometry x="3440" y="1360" width="10" height="15" as="geometry"/>
        </mxCell>
        <mxCell id="rClXXc_5LGEYXYGb1eKr-230" style="edgeStyle=elbowEdgeStyle;rounded=0;orthogonalLoop=1;jettySize=auto;elbow=vertical;html=1;labelBackgroundColor=none;endArrow=open;endFill=0;strokeColor=#000000;fontColor=#000000;align=center;dashed=1;" edge="1" parent="1" source="rClXXc_5LGEYXYGb1eKr-152">
          <mxGeometry relative="1" as="geometry">
            <mxPoint x="2930" y="1100" as="targetPoint"/>
          </mxGeometry>
        </mxCell>
        <mxCell id="rClXXc_5LGEYXYGb1eKr-231" value="return pid;(pid = 0)" style="text;html=1;resizable=0;points=[];align=center;verticalAlign=middle;labelBackgroundColor=none;fontColor=#000000;" vertex="1" connectable="0" parent="rClXXc_5LGEYXYGb1eKr-230">
          <mxGeometry x="0.5125" y="-1" relative="1" as="geometry">
            <mxPoint x="41" y="-9" as="offset"/>
          </mxGeometry>
        </mxCell>
        <mxCell id="rClXXc_5LGEYXYGb1eKr-233" value="&lt;font color=&quot;#ff3333&quot;&gt;fork()函数的特性，一次调用两次返回（分别在父进程和子进程返回一次）&lt;/font&gt;" style="shape=note;whiteSpace=wrap;html=1;size=14;verticalAlign=top;align=left;spacingTop=-6;labelBackgroundColor=none;strokeColor=#FF3333;fillColor=#ffffff;fontColor=#000000;" vertex="1" parent="1">
          <mxGeometry x="2400" y="1110" width="140" height="50" as="geometry"/>
        </mxCell>
        <mxCell id="rClXXc_5LGEYXYGb1eKr-239" value="loop" style="shape=umlFrame;whiteSpace=wrap;html=1;labelBackgroundColor=none;strokeColor=#000000;fillColor=#ffffff;fontColor=#000000;align=center;" vertex="1" parent="1">
          <mxGeometry x="3710" y="1320" width="110" height="80" as="geometry"/>
        </mxCell>
        <mxCell id="rClXXc_5LGEYXYGb1eKr-242" value="当前分析的是应用进程不存在的情况，如果是进程已存在，将直接执行realStartActivityLocked()来走创建页面流程。" style="shape=note;whiteSpace=wrap;html=1;size=14;verticalAlign=top;align=left;spacingTop=-6;labelBackgroundColor=none;strokeColor=#000000;fillColor=#ffffff;fontColor=#000000;" vertex="1" parent="1">
          <mxGeometry x="747" y="810" width="160" height="70" as="geometry"/>
        </mxCell>
      </root>
    </mxGraphModel>
  </diagram>
</mxfile>
